<?xml version="1.0" encoding="utf-8"?>
<!-- Generator: Adobe Illustrator 19.0.0, SVG Export Plug-In . SVG Version: 6.00 Build 0)  -->
<svg version="1.1" id="Layer_1" xmlns="http://www.w3.org/2000/svg" xmlns:xlink="http://www.w3.org/1999/xlink" x="0px" y="0px"
	 viewBox="-126.2 362 41.8 70" style="enable-background:new -126.2 362 41.8 70;" xml:space="preserve">
<style type="text/css">
	.st0{fill:#FFC60B;}
	.st1{fill:#231F20;}
	.st2{fill:#59AA47;}
	.st3{fill:#05B4E9;}
	.st4{fill:#FFFFFF;}
	.st5{fill:#EF4123;}
	.st6{fill:#FCBC80;}
</style>
<g>
	<path class="st0" d="M-100,378c0.5,0,1.1,0.1,1.6,0.4l0.1,0c0.3,0.1,0.9,0.1,1.5,0.2c0.1,0,0.1,0,0.2,0c-0.3-0.1-0.6-0.2-0.8-0.4
		c-0.2-0.1-0.3-0.2-0.5-0.3c-0.6-0.3-1.2-0.4-1.3-0.4c-0.1,0-0.1-0.1-0.1-0.2s0.1-0.2,0.1-0.2l2.9-0.4l-2.9-0.4
		c-0.1,0-0.1-0.1-0.1-0.1c0-0.1,0-0.1,0.1-0.2c0,0,0.5-0.3,1.1-0.4c0.3-0.1,0.8-0.2,1.4-0.4c0,0,0.1,0,0.1-0.1c-0.3,0-0.6,0-0.9,0
		c-0.2,0-0.4,0-0.6,0c-0.7,0-1.3,0.1-1.3,0.1c-0.1,0-0.2,0-0.2-0.1c0-0.1,0-0.2,0.1-0.2l2.5-1.5l-2.8,0.7c-0.1,0-0.1,0-0.2-0.1
		c0-0.1,0-0.1,0-0.2c0,0,0.3-0.5,0.9-0.8c0.2-0.2,0.7-0.5,1.2-0.9c0,0,0.1-0.1,0.1-0.1c-0.3,0.2-0.6,0.2-0.9,0.3
		c-0.2,0.1-0.3,0.1-0.5,0.2c-0.7,0.3-1.2,0.6-1.2,0.6c-0.1,0.1-0.2,0-0.2,0c-0.1-0.1-0.1-0.1,0-0.2l1.7-2.3l-2.3,1.7
		c-0.1,0-0.1,0-0.2,0c-0.1,0-0.1-0.1-0.1-0.2c0,0,0.1-0.6,0.5-1.1c0.2-0.2,0.5-0.7,0.7-1.3c0,0,0-0.1,0.1-0.1
		c-0.2,0.3-0.4,0.4-0.7,0.6c-0.1,0.1-0.3,0.2-0.4,0.4c-0.5,0.5-0.8,1-0.9,1c0,0.1-0.1,0.1-0.2,0.1c-0.1,0-0.1-0.1-0.1-0.2l0.7-2.8
		l-1.5,2.5c0,0.1-0.1,0.1-0.2,0.1c-0.1,0-0.1-0.1-0.1-0.1c0,0-0.1-0.6,0-1.2c0.1-0.3,0.1-0.9,0.2-1.5c0-0.1,0-0.1,0-0.2
		c-0.1,0.3-0.2,0.6-0.4,0.8c-0.1,0.2-0.2,0.3-0.3,0.5c-0.3,0.6-0.4,1.3-0.4,1.3c0,0.1-0.1,0.1-0.2,0.1s-0.2-0.1-0.2-0.1l-0.4-2.9
		l-0.4,2.9c0,0.1-0.1,0.1-0.1,0.1c-0.1,0-0.1,0-0.2-0.1c0,0-0.3-0.5-0.4-1.1c-0.1-0.3-0.2-0.8-0.4-1.4c0,0,0-0.1-0.1-0.1
		c0,0.3,0,0.6,0,0.9c0,0.2,0,0.4,0,0.6c0,0.7,0.1,1.3,0.1,1.3c0,0.1,0,0.2-0.1,0.2c-0.1,0-0.2,0-0.2-0.1l-1.5-2.5l0.7,2.8
		c0,0.1,0,0.1-0.1,0.2c-0.1,0-0.1,0-0.2,0c0,0-0.5-0.3-0.8-0.9c-0.2-0.2-0.5-0.7-0.9-1.2c0,0-0.1-0.1-0.1-0.1
		c0.2,0.3,0.2,0.6,0.3,0.9c0.1,0.2,0.1,0.3,0.2,0.5c0.2,0.6,0.6,1.1,0.6,1.2c0,0.1,0,0.2,0,0.2c-0.1,0.1-0.2,0.1-0.2,0l-2.4-1.7
		l1.8,2.3c0,0.1,0,0.1,0,0.2c0,0.1-0.1,0.1-0.2,0.1c0,0-0.5-0.1-1.1-0.5c-0.2-0.2-0.7-0.5-1.3-0.7c0,0-0.1,0-0.1-0.1
		c0.3,0.2,0.4,0.4,0.6,0.7c0.1,0.1,0.2,0.3,0.4,0.4c0.5,0.5,1,0.8,1,0.9c0.1,0,0.1,0.1,0.1,0.2c0,0.1-0.1,0.1-0.2,0.1l-2.8-0.7
		l2.5,1.5c0.1,0,0.1,0.1,0.1,0.2c0,0.1-0.1,0.1-0.1,0.1c0,0-0.6,0.1-1.2,0c-0.3,0-0.9-0.1-1.5-0.2c-0.1,0-0.1,0-0.2,0
		c0.3,0.1,0.6,0.2,0.8,0.4c0.1,0.1,0.3,0.2,0.5,0.3c0.6,0.3,1.3,0.4,1.3,0.4c0.1,0,0.1,0.1,0.1,0.2c0,0.1-0.1,0.2-0.1,0.2l-2.9,0.4
		l2.9,0.4c0.1,0,0.1,0.1,0.1,0.1c0,0.1,0,0.1-0.1,0.2c0,0-0.5,0.3-1.1,0.4c-0.3,0.1-0.8,0.2-1.4,0.4c0,0-0.1,0-0.1,0.1
		c0.3,0,0.6,0,0.9,0c0,0,0.4,0,0.6,0c0.1,0,0.3,0,0.4,0l0,0c0.6-0.4,1.3-0.7,2.1-0.9c0.1,0,0.2,0,0.3,0.1c0.1,0.1,0.1,0.1,0.1,0.2
		c0.1-0.1,0.3-0.2,0.5-0.2c0.6-0.3,1.3-0.4,2.2-0.5c0.1,0,0.2,0,0.3,0.1c0,0.1,0.1,0.1,0.1,0.2c0.2-0.1,0.5-0.2,0.7-0.2
		c0.7-0.1,1.4-0.1,2.2,0c0.1,0,0.2,0.1,0.3,0.2c0,0,0,0.1,0,0.1c0.2,0,0.5-0.1,0.7-0.1c0.7,0,1.4,0.1,2.2,0.4
		C-100.1,377.8-100,377.9-100,378C-100,378-100,378-100,378"/>
	<path class="st1" d="M-104.2,374.3c2.8-0.4,3.1,0.4,3.1,0.4s0.1,0.2,0.3,0.1c0,0,0.2,0,0.1-0.2c0,0-0.3-0.9-1.8-1.1
		c0,0-0.8-0.1-1.6,0c-0.2,0-0.3,0.6-0.3,0.6C-104.5,374.4-104.2,374.3-104.2,374.3"/>
	<path class="st1" d="M-106.6,374.9c-0.3-0.2-1.1-0.1-1.1-0.1c-1.3,0-1.6,0.8-1.6,0.8c-0.1,0.3,0.1,0.3,0.1,0.3
		c0.3,0.1,0.4-0.1,0.4-0.1s0.1-0.2,0.6-0.4c0,0.1,0,0.2,0,0.2c0,0.4,0.3,0.7,0.7,0.7s0.7-0.3,0.7-0.7c0-0.1,0-0.2-0.1-0.3
		c0.2,0.1,0.4,0.2,0.5,0.4c0,0.1,0.1,0.1,0.4,0.1c0.3,0,0.2-0.2,0.2-0.2C-106.2,375.1-106.6,374.9-106.6,374.9"/>
	<path class="st1" d="M-104.3,375.9c0.2,0,0.3,0,0.4-0.1c0.1-0.2,0.3-0.4,0.5-0.4c0,0.1-0.1,0.2-0.1,0.3c0,0.4,0.3,0.7,0.7,0.7
		c0.4,0,0.7-0.3,0.7-0.7c0-0.1,0-0.2,0-0.2c0.5,0.1,0.6,0.4,0.6,0.4s0.1,0.2,0.4,0.1c0,0,0.2,0,0.1-0.3c0,0-0.3-0.8-1.6-0.8
		c0,0-0.8,0-1.1,0.1c0,0-0.4,0.2-0.6,0.9C-104.5,375.7-104.5,375.9-104.3,375.9"/>
	<path class="st1" d="M-109.7,374.8c0.2,0.1,0.3-0.1,0.3-0.1s0.3-0.8,3.1-0.4c0,0,0.3,0.1,0.2-0.2c0,0-0.1-0.6-0.3-0.6
		c-0.8-0.1-1.6,0-1.6,0c-1.5,0.2-1.8,1.1-1.8,1.1C-109.9,374.8-109.7,374.8-109.7,374.8"/>
	<path class="st2" d="M-112.1,381.4c-0.6,0-1.3,0.1-1.3,0.1c-0.1,0-0.2,0-0.3-0.1c-0.1-0.1-0.1-0.2,0-0.3c0.5-0.7,0.6-1.4,0.6-1.9
		c0,0,0,0,0,0c0,0,0,0,0,0c-1.9,1.4-2,2.8-2,3.3c0,0,0,0,0,0c0,0,0.1,0,0.1,0C-113.7,382.6-112.7,381.8-112.1,381.4
		C-112.1,381.4-112.1,381.4-112.1,381.4C-112.1,381.4-112.1,381.4-112.1,381.4"/>
	<path class="st2" d="M-109.7,380.2c-0.2-0.1-0.4-0.1-0.7-0.1c-0.4,0-0.6,0-0.6,0h0c-0.1,0-0.2-0.1-0.2-0.2c0-0.1,0-0.2,0.1-0.3
		c0.7-0.6,1-1.1,1.1-1.4c0,0,0,0,0,0c0,0,0,0,0,0c-2.2,0.7-2.7,2-2.8,2.5c0,0,0,0,0,0c0.2,0.1,0.5,0.1,0.9,0.1
		c0.4,0,0.9-0.1,1.5-0.3C-110.2,380.5-110,380.4-109.7,380.2C-109.7,380.3-109.7,380.2-109.7,380.2
		C-109.7,380.2-109.7,380.2-109.7,380.2"/>
	<path class="st2" d="M-107.1,379.5c-0.6-0.3-1.2-0.4-1.2-0.4c-0.1,0-0.2-0.1-0.2-0.2c0-0.1,0-0.2,0.1-0.3c0.7-0.4,1.1-0.7,1.3-1
		c0,0,0,0,0,0c0,0,0,0,0,0c-1.1,0.2-2,0.5-2.6,1.1c-0.3,0.3-0.4,0.6-0.5,0.8c0,0,0,0,0,0c0.5,0.2,1,0.3,1.5,0.3c0.3,0,0.6,0,0.8-0.1
		C-107.7,379.7-107.4,379.6-107.1,379.5C-107.1,379.5-107.1,379.5-107.1,379.5C-107.1,379.5-107.1,379.5-107.1,379.5"/>
	<path class="st2" d="M-105.4,378.8c-0.1,0-0.2-0.1-0.2-0.2c0-0.1,0.1-0.2,0.2-0.2c0.7-0.2,1.2-0.5,1.4-0.7c0,0,0,0,0,0c0,0,0,0,0,0
		c-1.1-0.1-2,0.1-2.7,0.5c-0.3,0.2-0.6,0.5-0.7,0.6c0,0,0,0,0,0c0.7,0.6,1.7,0.7,2.4,0.7c0.2,0,0.4,0,0.6,0c0,0,0,0,0,0c0,0,0,0,0,0
		C-104.8,379-105.4,378.8-105.4,378.8"/>
	<path class="st2" d="M-102.5,379c-0.1-0.1-0.1-0.2-0.1-0.3c0-0.1,0.1-0.2,0.2-0.2c0.7-0.1,1.2-0.3,1.5-0.4c0,0,0,0,0,0c0,0,0,0,0,0
		c-1-0.3-2-0.3-2.7,0c-0.4,0.1-0.6,0.3-0.8,0.5c0,0,0,0,0,0c0.9,1.1,2.2,1.3,2.9,1.3l0,0c0,0,0,0,0,0c0,0,0,0,0,0
		C-102,379.4-102.5,379-102.5,379"/>
	<path class="st2" d="M-95.4,382.5C-95.4,382.5-95.4,382.5-95.4,382.5c0-0.3,0-0.7-0.2-1.2c-0.3-0.8-1-1.4-2-1.8c0,0,0,0,0,0
		c0,0,0,0,0,0c0.1,0.4,0.4,1,0.8,1.5c0.1,0.1,0.1,0.2,0,0.3c-0.1,0.1-0.2,0.1-0.3,0.1c0,0-0.6-0.1-1.2,0c0,0,0,0,0,0c0,0,0,0,0,0
		c0.6,0.4,1.8,1.1,2.8,1.1C-95.5,382.6-95.4,382.6-95.4,382.5"/>
	<path class="st2" d="M-97.7,380.8C-97.7,380.8-97.7,380.8-97.7,380.8c-0.5-0.6-1.2-0.9-2.1-0.8c-0.3,0-0.6,0.1-0.9,0.2c0,0,0,0,0,0
		c0,0,0,0,0,0c0.7,0.5,1.4,0.8,2.1,0.8c0,0,0.1,0,0.1,0C-98.1,380.9-97.8,380.8-97.7,380.8C-97.7,380.8-97.7,380.8-97.7,380.8"/>
	<path class="st2" d="M-101.7,379C-101.7,379-101.7,379-101.7,379c0.4,0.3,0.9,0.5,1.5,0.5c0.3,0,0.5,0,0.8-0.1
		c0.4-0.1,0.8-0.2,1.1-0.3c0,0,0,0,0,0c0,0,0,0,0,0c-0.4-0.2-0.8-0.4-1.2-0.4c-0.4-0.1-0.9-0.1-1.3,0
		C-101.2,378.7-101.5,378.9-101.7,379C-101.7,379-101.7,379-101.7,379"/>
	<path class="st3" d="M-105.8,396.1h-3.4c-0.7,0-1.2-0.3-1.4-0.6c-0.2-0.2-0.3-0.5-0.4-0.8c0,0,0-0.1,0-0.1c0-0.3,0-0.7,0-1
		c0.4-2.2,1.3-3.7,2.1-4.7c-0.1,0-0.2-0.1-0.2-0.1c-0.5-0.3-0.7-0.8-0.6-1.4c0.1-0.7,0.8-1.5,1-1.6c1.2-1.4,2.9-1.5,3.1-1.5
		c0.3,0,2.6-0.1,3.8,2.3c1.5,2.9,1.8,5.3,2.1,7.2l0,0.1c0,0.3,0,0.6,0,0.8c0,0,0,0.1,0,0.1c-0.1,0.3-0.2,0.5-0.3,0.6
		c-0.3,0.3-0.8,0.6-1.3,0.6c-0.2,0-0.5,0-0.6,0c-0.1,0-0.1,0-0.1,0h-1h0h0h-1.6v4.8h15.3c0-2.8-0.4-5.6-1.3-8.2
		c-0.8-2.5-1.9-4.7-3.4-6.7c-1.5-1.9-3.1-3.4-5-4.5c-1.9-1.1-4-1.6-6.1-1.6c-2.1,0-4.2,0.5-6.1,1.6c-1.9,1-3.6,2.5-5,4.5
		c-1.5,1.9-2.6,4.2-3.4,6.7c-0.8,2.6-1.3,5.3-1.3,8.2h15.3C-105.8,400.9-105.8,396.1-105.8,396.1z"/>
	<path class="st4" d="M-121,400.9c0,2.1,0.2,4.3,0.7,6.3c6.8-0.8,10.9-1.6,12.1-2.4c0.8-0.6,1.5-0.9,2.4-0.9v-3H-121z"/>
	<path class="st4" d="M-104.7,404c0.6,0.1,1.1,0.3,1.6,0.5c0,0,0.1,0,0.2,0c0.9,0,1.6,0.2,2.7,0.6c0.3,0.1,0.6,0.2,0.9,0.3
		c0.1,0,5.1,1.6,9.2,1.8c0.5-2,0.7-4.2,0.7-6.4h-15.3V404z"/>
	<path class="st4" d="M-98.5,410.7c-0.1,0.1-0.2,0.3-0.3,0.4c-0.3,0.2-0.6,0.4-1,0.4c-0.1,0.1-0.1,0.3-0.3,0.4
		c-0.2,0.3-0.6,0.6-1.3,0.5c-0.1,0.1-0.2,0.2-0.3,0.4c-0.3,0.3-0.8,0.5-1.3,0.4c-0.1,0.1-0.3,0.2-0.5,0.3c-0.3,0.1-0.7,0.2-1.2,0.1
		v4.1c0,0.3-0.2,0.5-0.5,0.5c-0.3,0-0.5-0.2-0.5-0.5v-3.9c-0.2,0.1-0.4,0.1-0.7,0.1c-0.1,0-0.2,0-0.3,0c-0.3-0.1-0.5-0.2-0.7-0.4
		c-0.3,0.1-0.9,0.1-1.4-0.2c-0.2-0.1-0.3-0.3-0.4-0.5c-0.1,0-0.3,0-0.5-0.1c-0.4-0.1-0.8-0.4-0.9-0.8c-0.1,0-0.2,0-0.4,0
		c-0.4-0.1-0.8-0.2-1-0.6c0-0.1-0.1-0.2-0.1-0.3c-2.2,1.1-4.7,2.2-5.8,2.7c0.4,0.7,0.9,1.5,1.4,2.1c1.5,1.9,3.1,3.4,5,4.5
		c0.9,0.5,1.8,0.9,2.7,1.1c0.1-0.2,0.2-0.3,0.4-0.4c0.9-0.6,2.5-0.2,3,0c0.5-0.1,2.1-0.6,3,0c0.2,0.1,0.3,0.3,0.4,0.4
		c0.9-0.3,1.8-0.6,2.7-1.1c1.9-1,3.6-2.5,5-4.5c0.5-0.6,0.9-1.3,1.3-2C-94,413.3-96.7,412.1-98.5,410.7"/>
	<path class="st3" d="M-103.8,424.6c0-0.1,0-0.2,0-0.4c0-0.1,0-0.2,0-0.3c0.5-0.1,1.3-0.4,1.8-0.9c0.3-0.3,0.4-0.7,0.3-1.2
		c0-0.4-0.2-0.7-0.5-0.9c-0.9-0.6-2.5-0.2-3,0c-0.5-0.1-2.1-0.6-3,0c-0.3,0.2-0.5,0.5-0.5,0.9c0,0.4,0.1,0.8,0.3,1.2
		c0.5,0.6,1.3,0.8,1.8,0.9c0,0.1,0,0.2,0,0.3c0,0.1,0,0.2,0,0.3c-0.4,0.4-1.6,1.4-3.3,1.6c0.1,0.1,0.2,0.3,0.5,0.6
		c1.6-0.3,2.6-1.1,3.2-1.6c0,0.1,0.1,0.1,0.2,0.2c-0.1,0.4-0.6,1.5-2.5,2c0.3,0.1,0.7,0.3,1.1,0.3c1.3-0.6,1.8-1.5,1.9-2
		c0.1,0,0.2,0,0.3,0c0.1,0,0.2,0,0.3,0c0.2,0.5,0.6,1.4,1.9,2c0.4-0.1,0.8-0.2,1.1-0.3c-1.9-0.5-2.3-1.6-2.5-2
		c0.1,0,0.1-0.1,0.2-0.2c0.5,0.5,1.6,1.3,3.1,1.6c0.3-0.3,0.5-0.5,0.5-0.6C-102.3,426-103.5,424.9-103.8,424.6"/>
	<path class="st4" d="M-102.6,421.5c0.1,0.1,0.2,0.2,0.2,0.4c0,0.2,0,0.5-0.2,0.6c-0.2,0.2-0.5,0.4-0.9,0.5c0.2-0.3,0.2-0.7,0.1-1
		c-0.1-0.3-0.3-0.6-0.5-0.7C-103.4,421.3-102.9,421.3-102.6,421.5"/>
	<path class="st4" d="M-106.5,422.3c0.3-0.7,1.2-0.7,1.2-0.7c0,0,0.3,0,0.5,0.1c0.4,0.1,0.6,0.3,0.7,0.6c0.1,0.3-0.1,0.6-0.3,0.8
		c-0.3-0.2-0.6-0.4-1-0.4c-0.4,0-0.7,0.1-1,0.4C-106.4,422.9-106.6,422.6-106.5,422.3"/>
	<path class="st4" d="M-107.1,423.1c-0.3-0.1-0.7-0.3-0.9-0.5c-0.2-0.2-0.2-0.4-0.2-0.6c0-0.2,0.1-0.3,0.2-0.4
		c0.2-0.1,0.5-0.2,0.9-0.2c0.1,0,0.3,0,0.4,0c-0.2,0.2-0.4,0.4-0.5,0.7C-107.3,422.4-107.2,422.8-107.1,423.1"/>
	<path class="st4" d="M-106,424.2c0-0.4,0.3-0.8,0.8-0.8c0.4,0,0.8,0.3,0.8,0.8c0,0.4-0.3,0.8-0.8,0.8
		C-105.7,425-106,424.6-106,424.2"/>
	<path class="st4" d="M-101,426.8c-1.5-0.3-2.6-1.1-3.1-1.6c-0.1,0.1-0.1,0.1-0.2,0.2c0.1,0.4,0.6,1.5,2.5,2
		C-101.5,427.2-101.2,427-101,426.8"/>
	<path class="st4" d="M-106.3,425.2c-0.5,0.5-1.6,1.3-3.2,1.6c0.2,0.2,0.5,0.4,0.8,0.5c1.9-0.5,2.4-1.6,2.5-2
		C-106.2,425.3-106.3,425.2-106.3,425.2"/>
	<path class="st1" d="M-86.1,405c0-0.1,0-0.2-0.1-0.3c-0.1-0.1-0.1-0.1-0.2-0.1c0.1-0.1,0.1-0.3,0.2-0.4c0.2-0.6,0.4-1.4,0.4-2.2
		c0-0.1-0.1-0.2-0.1-0.3c-0.1,0-0.1-0.1-0.2-0.1c0-0.1,0.1-0.3,0.1-0.4c0.2-0.7,0.2-1.4,0.2-2.2c0-0.1-0.1-0.2-0.2-0.3
		c-0.1,0-0.2,0-0.2,0c0-0.2,0.1-0.3,0.1-0.5c0.1-0.7,0.1-1.4-0.1-2.3c0-0.1-0.1-0.2-0.2-0.2c-0.1,0-0.1,0-0.2,0c0-0.1,0-0.2,0-0.3
		c0.1-0.7,0-1.4-0.2-2.2c0-0.1-0.1-0.2-0.2-0.2c-0.1,0-0.2,0-0.3,0c0,0,0,0,0,0c0-0.2,0-0.4,0-0.5c0-0.7-0.2-1.4-0.5-2.2
		c0-0.1-0.1-0.2-0.2-0.2c-0.1,0-0.2,0-0.3,0c0-0.2,0-0.3,0-0.5c-0.1-0.7-0.3-1.4-0.7-2.1c-0.1-0.1-0.1-0.2-0.3-0.2
		c-0.1,0-0.2,0-0.2,0.1c0-0.2-0.1-0.3-0.1-0.5c-0.2-0.7-0.5-1.4-1-2c-0.1-0.1-0.2-0.1-0.3-0.1c-0.1,0-0.2,0.1-0.3,0.1
		c-0.1-0.2-0.1-0.4-0.2-0.5c-0.3-0.6-0.7-1.3-1.3-1.9c-0.1-0.1-0.2-0.1-0.3-0.1c-0.1,0-0.2,0.1-0.2,0.1c-0.1-0.2-0.2-0.4-0.3-0.5
		c-0.4-0.6-0.9-1.1-1.5-1.6c-0.1-0.1-0.2-0.1-0.3-0.1c-0.1,0-0.2,0.1-0.2,0.2c-0.4-0.6-1-1-1.8-1.3c0.1,0,0.3,0,0.4,0
		c0.9,0.1,1.5-0.1,1.6-0.1c0.2-0.1,0.3-0.2,0.3-0.4c0-0.2-0.2-0.4-0.4-0.4c-1,0-1.4-0.3-1.8-0.5c-0.1-0.1-0.2-0.1-0.3-0.1l2.3-0.3
		c0.2,0,0.4-0.2,0.4-0.4c0-0.2-0.2-0.4-0.4-0.4l-2.3-0.3c0.3-0.1,0.6-0.2,0.9-0.3c0.9-0.3,1.4-0.7,1.4-0.7c0.2-0.1,0.2-0.3,0.1-0.5
		c-0.1-0.2-0.3-0.3-0.5-0.2c-0.9,0.3-1.4,0.3-1.9,0.2c-0.1,0-0.2,0-0.3,0l2-1.2c0.2-0.1,0.2-0.3,0.2-0.5c-0.1-0.2-0.3-0.3-0.5-0.2
		l-2.3,0.6c0.2-0.2,0.5-0.4,0.7-0.6c0.7-0.6,1-1.2,1-1.2c0.1-0.2,0-0.4-0.1-0.5c-0.2-0.1-0.4-0.1-0.5,0c-0.7,0.7-1.1,0.8-1.7,0.9
		c-0.1,0-0.2,0.1-0.3,0.1l1.4-1.9c0.1-0.2,0.1-0.4,0-0.5c-0.1-0.1-0.4-0.2-0.5,0l-1.9,1.4c0.1-0.2,0.3-0.5,0.4-0.8
		c0.4-0.8,0.5-1.5,0.5-1.5c0-0.2-0.1-0.4-0.3-0.4c-0.2-0.1-0.4,0-0.5,0.2c-0.4,0.9-0.8,1.2-1.2,1.5c-0.1,0.1-0.2,0.1-0.2,0.2
		l0.6-2.3c0.1-0.2-0.1-0.4-0.2-0.5c-0.2-0.1-0.4,0-0.5,0.2l-1.2,2c0-0.3,0.1-0.6,0.1-1c0.1-0.9-0.1-1.5-0.1-1.6
		c-0.1-0.2-0.2-0.3-0.4-0.3c-0.2,0-0.4,0.2-0.4,0.4c0,1-0.2,1.4-0.5,1.8c0,0.1-0.1,0.2-0.1,0.3l-0.3-2.3c0-0.2-0.2-0.4-0.4-0.4h0
		c-0.2,0-0.4,0.2-0.4,0.4l-0.3,2.3c-0.1-0.3-0.2-0.6-0.3-0.9c-0.3-0.9-0.7-1.4-0.7-1.4c-0.1-0.2-0.3-0.2-0.5-0.1
		c-0.2,0.1-0.3,0.3-0.2,0.5c0.3,0.9,0.3,1.4,0.2,1.9c0,0.1,0,0.2,0,0.3l-1.2-2c-0.1-0.2-0.3-0.2-0.5-0.2c-0.2,0.1-0.3,0.3-0.2,0.5
		l0.6,2.3c-0.2-0.2-0.4-0.5-0.6-0.7c-0.6-0.7-1.2-1-1.2-1c-0.2-0.1-0.4,0-0.5,0.1c-0.1,0.2-0.1,0.4,0,0.5c0.7,0.7,0.8,1.1,0.9,1.7
		c0,0.1,0.1,0.2,0.1,0.3l-1.9-1.4c-0.2-0.1-0.4-0.1-0.5,0c-0.1,0.1-0.2,0.4,0,0.5l1.4,1.9c-0.2-0.1-0.5-0.3-0.8-0.4
		c-0.8-0.4-1.5-0.5-1.5-0.5c-0.2,0-0.4,0.1-0.4,0.3c-0.1,0.2,0,0.4,0.2,0.5c0.9,0.4,1.2,0.8,1.5,1.2c0.1,0.1,0.1,0.2,0.2,0.2
		l-2.3-0.6c-0.2,0-0.4,0.1-0.5,0.2c-0.1,0.2,0,0.4,0.2,0.5l2,1.2c-0.3,0-0.6-0.1-0.9-0.1c-0.9-0.1-1.5,0.1-1.6,0.1
		c-0.2,0.1-0.3,0.2-0.3,0.4c0,0.2,0.2,0.4,0.4,0.4c1,0,1.4,0.2,1.8,0.5c0.1,0,0.2,0.1,0.3,0.1l-2.3,0.3c-0.2,0-0.4,0.2-0.4,0.4
		c0,0.2,0.2,0.4,0.4,0.4l2.3,0.3c-0.3,0.1-0.6,0.2-0.9,0.3c-0.9,0.3-1.4,0.7-1.4,0.7c-0.2,0.1-0.2,0.3-0.1,0.5
		c0.1,0.2,0.3,0.3,0.5,0.2c0.5-0.2,0.9-0.3,1.2-0.3c-0.5,0.4-0.9,0.8-1,1c-0.1,0.1-0.2,0.2-0.3,0.4c0-0.1-0.1-0.1-0.2-0.1
		c-0.1,0-0.2,0-0.3,0c-0.7,0.5-1.2,1.1-1.6,1.6c-0.1,0.2-0.2,0.3-0.3,0.5c0-0.1-0.1-0.1-0.2-0.1c-0.1,0-0.2,0-0.3,0.1
		c-0.6,0.6-1,1.2-1.3,1.9c-0.1,0.2-0.1,0.3-0.2,0.5c-0.1-0.1-0.1-0.1-0.2-0.1c-0.1,0-0.2,0-0.3,0.1c-0.5,0.7-0.8,1.3-1,2
		c-0.1,0.2-0.1,0.4-0.1,0.5c-0.1-0.1-0.2-0.1-0.3-0.1c-0.1,0-0.2,0.1-0.3,0.2c-0.4,0.7-0.6,1.4-0.7,2.1c0,0.2,0,0.3,0,0.5
		c-0.1-0.1-0.2-0.1-0.3-0.1c-0.1,0-0.2,0.1-0.2,0.2c-0.3,0.8-0.4,1.5-0.5,2.2c0,0.2,0,0.3,0,0.5c-0.1,0-0.2-0.1-0.3,0
		c-0.1,0-0.2,0.1-0.2,0.2c-0.2,0.8-0.3,1.6-0.2,2.2c0,0.1,0,0.3,0.1,0.4c0,0-0.1,0-0.1,0c-0.1,0-0.2,0.1-0.2,0.2
		c-0.2,0.8-0.2,1.6-0.1,2.3c0,0.2,0.1,0.3,0.1,0.5c0,0-0.1,0-0.1,0c-0.1,0-0.2,0.1-0.2,0.3c-0.1,0.8-0.1,1.6,0.1,2.3
		c0,0.1,0.1,0.3,0.1,0.4c-0.1,0-0.2,0-0.2,0c-0.1,0.1-0.1,0.2-0.2,0.3c0,0.8,0.1,1.6,0.3,2.2c0.1,0.2,0.1,0.4,0.2,0.6c0,0,0,0,0,0
		c-0.1,0-0.2,0-0.3,0.1c-0.1,0.1-0.1,0.2-0.1,0.3c0.1,0.8,0.4,1.5,0.7,2.1c0.1,0.1,0.1,0.2,0.2,0.3c-0.1,0-0.1,0-0.2,0.1
		c-0.1,0.1-0.1,0.2-0.1,0.3c0.2,0.8,0.5,1.5,0.9,2.1c0.1,0.1,0.2,0.3,0.3,0.4c-0.1,0-0.2,0.1-0.2,0.1c-0.1,0.1-0.1,0.2,0,0.3
		c0.3,0.8,0.6,1.4,1.1,2c0.1,0.1,0.2,0.2,0.3,0.3c-0.1,0-0.1,0.1-0.2,0.1c-0.1,0.1-0.1,0.2,0,0.3c0.4,0.7,0.8,1.4,1.3,1.8
		c0.1,0.1,0.2,0.2,0.3,0.3c-0.1,0-0.1,0.1-0.2,0.2c0,0.1,0,0.2,0,0.3c0.4,0.7,1,1.3,1.5,1.7c0.2,0.1,0.3,0.2,0.5,0.3
		c0,0-0.1,0-0.1,0c-0.1,0-0.2,0.1-0.2,0.2s0,0.2,0.1,0.3c0.6,0.6,1.2,1.1,1.7,1.4c0.5,0.3,1,0.5,1.4,0.5c0.4,0.1,0.8,0.1,1.2,0
		c0,0,0,0,0.1,0c1,0.7,2.1,1.3,3.2,1.8c0.9,0.4,1.9,0.7,2.8,0.9c0.2,0,0.4,0.1,0.6,0.1c-0.4-0.1-0.8-0.4-1.1-0.7
		c0-0.1-0.1-0.1-0.1-0.2c-0.7-0.2-1.3-0.4-2-0.7c-1.1-0.4-2.1-1-3.1-1.7c0,0,0,0,0,0c0-0.3,0-0.7-0.1-1c0.7,0.6,1.3,1,2,1.4
		c0.9,0.5,1.9,0.9,2.9,1.2c0-0.1,0-0.1,0-0.2c0-0.2,0.1-0.3,0.1-0.5c-0.9-0.3-1.8-0.6-2.7-1.1c-1.9-1-3.6-2.5-5-4.5
		c-0.5-0.7-1-1.4-1.4-2.1c1.1-0.5,3.6-1.6,5.8-2.7c0,0.1,0,0.2,0.1,0.3c0.2,0.4,0.7,0.6,1,0.6c0.1,0,0.2,0,0.4,0
		c0.1,0.3,0.4,0.6,0.9,0.8c0.2,0.1,0.3,0.1,0.5,0.1c0.1,0.2,0.2,0.4,0.4,0.5c0.4,0.3,1,0.3,1.4,0.2c0.2,0.2,0.4,0.4,0.7,0.4
		c0.1,0,0.2,0,0.3,0c0.2,0,0.5-0.1,0.7-0.1v3.9c0,0.3,0.2,0.5,0.5,0.5c0.3,0,0.5-0.2,0.5-0.5v-4.1c0.5,0.1,0.9,0,1.2-0.1
		c0.2-0.1,0.4-0.2,0.5-0.3c0.5,0.1,1,0,1.3-0.4c0.1-0.1,0.2-0.3,0.3-0.4c0.7,0,1.1-0.3,1.3-0.5c0.1-0.1,0.2-0.3,0.3-0.4
		c0.4,0,0.8-0.2,1-0.4c0.1-0.1,0.2-0.3,0.3-0.4c1.8,1.4,4.5,2.6,5.7,3.1c-0.4,0.7-0.9,1.4-1.3,2c-1.5,1.9-3.1,3.4-5,4.5
		c-0.9,0.5-1.8,0.9-2.7,1.1c0.1,0.1,0.1,0.3,0.1,0.5c0,0.1,0,0.1,0,0.2c1-0.3,2-0.7,2.9-1.2c0.7-0.4,1.4-0.9,2-1.4
		c-0.1,0.3-0.1,0.7-0.1,1c0,0,0,0,0,0c-0.3,0.2-1.1,0.8-2.3,1.4c-0.9,0.4-1.8,0.8-2.7,1c0,0-0.1,0-0.1,0c0,0.1-0.1,0.1-0.1,0.2
		c-0.3,0.3-0.7,0.6-1.1,0.7c0.5-0.1,1-0.2,1.5-0.3c1-0.3,1.9-0.6,2.8-1.1c1.2-0.6,2-1.2,2.4-1.4c0,0,0,0,0,0c0.3,0.1,0.8,0.1,1.2,0
		c0.5-0.1,1-0.3,1.4-0.5c0.6-0.3,1.2-0.8,1.7-1.4c0.1-0.1,0.1-0.2,0.1-0.3c0-0.1-0.1-0.2-0.2-0.2c0,0,0,0-0.1,0
		c0.2-0.1,0.4-0.2,0.5-0.4c0.5-0.4,1.1-1,1.5-1.7c0.1-0.1,0.1-0.2,0-0.3c0-0.1-0.1-0.1-0.2-0.2c0.1-0.1,0.2-0.2,0.3-0.3
		c0.5-0.5,0.9-1.1,1.3-1.8c0.1-0.1,0-0.2,0-0.3c-0.1-0.1-0.1-0.1-0.2-0.2c0.1-0.1,0.2-0.2,0.3-0.4c0.4-0.5,0.8-1.2,1.1-2
		c0-0.1,0-0.2,0-0.3c-0.1-0.1-0.2-0.1-0.3-0.1h0c0.1-0.1,0.2-0.2,0.3-0.4c0.4-0.6,0.7-1.3,0.9-2.1c0-0.1,0-0.2-0.1-0.3
		c-0.1-0.1-0.2-0.1-0.3-0.1c0.1-0.1,0.2-0.3,0.3-0.4C-86.4,406.6-86.2,405.8-86.1,405 M-86.5,402.4
		C-86.5,402.4-86.5,402.5-86.5,402.4c0,0.6-0.1,1.1-0.3,1.6c-0.2,0.5-0.4,0.9-0.7,1.2c-0.3,0.4-0.7,0.6-0.8,0.7c0,0,0,0,0,0
		c0,0,0,0,0,0c-0.5-0.6-0.7-1.4-0.7-2.2c0-0.3,0-0.6,0.1-0.8c0,0,0,0,0,0c0,0,0,0,0,0c0.4,0.5,0.6,1.2,0.6,1.2
		c0,0.1,0.1,0.2,0.2,0.2c0.1,0,0.2,0,0.2-0.1C-87.4,403.2-86.9,402.7-86.5,402.4C-86.5,402.4-86.5,402.4-86.5,402.4 M-86.6,399.5
		C-86.6,399.5-86.6,399.5-86.6,399.5C-86.5,399.5-86.5,399.5-86.6,399.5c0,0.6,0,1.1-0.1,1.6c-0.1,0.5-0.3,0.9-0.6,1.3
		c-0.3,0.4-0.6,0.7-0.7,0.8c0,0,0,0,0,0c0,0,0,0,0,0c-0.8-0.9-0.9-2.2-0.8-3c0,0,0,0,0,0c0,0,0,0,0,0c0.4,0.5,0.7,1,0.7,1
		c0,0.1,0.1,0.1,0.2,0.1c0.1,0,0.2-0.1,0.2-0.2C-87.4,400.3-86.9,399.8-86.6,399.5 M-86.9,396.5C-86.9,396.5-86.9,396.5-86.9,396.5
		C-86.9,396.5-86.9,396.5-86.9,396.5c0.1,0.6,0.1,1.1,0,1.6c-0.1,0.5-0.2,0.9-0.4,1.3c-0.3,0.5-0.6,0.7-0.7,0.8c0,0,0,0,0,0
		c0,0,0,0,0,0c-0.8-0.7-1-2.1-1.1-2.9c0,0,0,0,0,0c0,0,0,0,0,0c0.5,0.4,0.8,0.9,0.8,0.9c0.1,0.1,0.1,0.1,0.2,0.1
		c0.1,0,0.2-0.1,0.2-0.2C-87.6,397.4-87.2,396.8-86.9,396.5 M-87.4,393.7C-87.4,393.7-87.3,393.7-87.4,393.7
		C-87.3,393.7-87.3,393.7-87.4,393.7c0.1,0.6,0.2,1.1,0.1,1.6c0,0.5-0.2,0.9-0.4,1.3c-0.2,0.5-0.5,0.8-0.6,0.9c0,0,0,0,0,0
		c0,0,0,0,0,0c-0.7-0.6-1-1.4-1.1-2c-0.1-0.3-0.1-0.5-0.1-0.8c0,0,0,0,0,0c0,0,0,0,0,0c0.5,0.4,0.9,0.9,0.9,0.9
		c0.1,0.1,0.2,0.1,0.2,0.1s0.2-0.1,0.2-0.2C-88,394.6-87.7,394-87.4,393.7 M-110,393.9c0,0,0-0.1,0-0.1c0.4-2,1.2-3.3,1.7-4.1
		c0.4-0.6,0.8-0.9,1-1.1c0.1,0,0.1-0.1,0.2-0.1c0.2-0.2,0.2-0.4,0.1-0.6c-0.2-0.2-0.4-0.2-0.6-0.1c0,0-0.1,0.1-0.2,0.2
		c-0.4,0.3-0.7,0.2-0.7,0.2c-0.1-0.1-0.2-0.3-0.2-0.5c0.1-0.4,0.5-1,0.7-1.2c0,0,0,0,0,0c1-1.1,2.5-1.2,2.5-1.2s0,0,0,0
		c0,0,0.5,0,1.1,0.2c0.8,0.3,1.4,0.8,1.9,1.7c0.6,1.2,1.1,2.4,1.4,3.6c-0.8-0.3-1.5-0.9-1.5-0.9c-0.2-0.2-0.5-0.1-0.7,0.1
		c-0.1,0.1-0.1,0.2-0.1,0.3s0.1,0.2,0.2,0.3c0,0,1.1,0.9,2.4,1.2c0.1,0.4,0.2,0.9,0.3,1.4c-0.4-0.2-0.9-0.3-1.3-0.4
		c-0.3-0.1-0.5-0.1-0.7-0.2c-0.9-0.3-1.6-0.9-1.6-0.9c-0.2-0.2-0.5-0.1-0.7,0.1c-0.2,0.2-0.1,0.5,0.1,0.7c0,0,0.9,0.7,1.9,1.1
		c0.3,0.1,0.5,0.2,0.8,0.3c1.1,0.3,1.6,0.5,1.6,1.1c0,0.1-0.1,0.2-0.1,0.2c-0.4,0.4-1.1,0.4-1.4,0.4c0,0,0,0,0,0h-1
		c-0.2,0-1.3,0-2.2-0.6C-107.6,393.1-108.7,393.3-110,393.9 M-106,395.2h-3.2c-0.3,0-0.5-0.1-0.7-0.2c0,0-0.1-0.1-0.1-0.1
		C-108.6,394.2-107.9,394-106,395.2 M-104.7,400.9v-4.8h1.6h0h0h1c0,0,0.1,0,0.1,0c0.1,0,0.4,0,0.6,0c0.6-0.1,1-0.3,1.3-0.6
		c0.1-0.1,0.3-0.3,0.3-0.6c0,0,0,0,0-0.1c0.1-0.2,0.1-0.5,0-0.8l0-0.1c-0.3-1.9-0.6-4.3-2.1-7.2c-1.2-2.4-3.5-2.3-3.8-2.3
		c-0.2,0-2,0.1-3.1,1.5c-0.1,0.1-0.8,0.9-1,1.6c-0.1,0.6,0.1,1.2,0.6,1.4c0.1,0,0.2,0.1,0.2,0.1c-0.7,0.9-1.6,2.4-2.1,4.7
		c-0.1,0.4-0.1,0.7,0,1c0,0,0,0.1,0,0.1c0.1,0.3,0.2,0.6,0.4,0.8c0.2,0.3,0.6,0.6,1.4,0.6h3.4v4.8v3c-0.9,0-1.6,0.3-2.4,0.9
		c-1.2,0.8-5.3,1.6-12.1,2.4c-0.5-2-0.7-4.1-0.7-6.3c0-2.8,0.4-5.6,1.3-8.2c0.8-2.5,1.9-4.7,3.4-6.7c1.5-1.9,3.1-3.4,5-4.5
		c1.9-1.1,4-1.6,6.1-1.6c2.1,0,4.2,0.5,6.1,1.6c1.9,1,3.6,2.5,5,4.5c1.5,1.9,2.6,4.2,3.4,6.7c0.8,2.6,1.3,5.3,1.3,8.2
		c0,2.2-0.2,4.3-0.7,6.4c-4.2-0.2-9.1-1.8-9.2-1.8c-0.3-0.1-0.7-0.2-0.9-0.3c-1-0.4-1.8-0.6-2.7-0.6c-0.1,0-0.1,0-0.2,0
		c-0.5-0.2-0.9-0.4-1.6-0.5V400.9L-104.7,400.9z M-98.3,379.1c-0.3,0.1-0.6,0.2-1.1,0.3c-0.3,0.1-0.5,0.1-0.8,0.1
		c-0.6,0-1.1-0.1-1.5-0.4c0,0,0,0,0,0c0,0,0,0,0,0c0.2-0.1,0.5-0.3,0.9-0.4c0.4-0.1,0.9-0.1,1.3,0
		C-99.1,378.7-98.7,378.8-98.3,379.1C-98.3,379-98.3,379.1-98.3,379.1C-98.3,379.1-98.3,379.1-98.3,379.1 M-97.7,380.8
		C-97.7,380.8-97.7,380.8-97.7,380.8C-97.7,380.8-97.7,380.8-97.7,380.8c-0.2,0.1-0.5,0.2-0.8,0.2c0,0-0.1,0-0.1,0
		c-0.7,0-1.4-0.3-2.1-0.8c0,0,0,0,0,0c0,0,0,0,0,0c0.3-0.1,0.6-0.1,0.9-0.2C-98.9,379.9-98.2,380.2-97.7,380.8 M-100.9,378.1
		c-0.3,0.1-0.8,0.3-1.5,0.4c-0.1,0-0.2,0.1-0.2,0.2c0,0.1,0,0.2,0.1,0.3c0,0,0.6,0.4,1,0.9c0,0,0,0,0,0c0,0,0,0,0,0l0,0
		c-0.7,0-2-0.2-2.9-1.3c0,0,0,0,0,0c0.1-0.1,0.4-0.3,0.8-0.5C-102.9,377.8-102,377.8-100.9,378.1
		C-100.9,378.1-100.9,378.1-100.9,378.1C-100.9,378.1-100.9,378.1-100.9,378.1 M-104,377.6c-0.2,0.2-0.7,0.5-1.4,0.7
		c-0.1,0-0.2,0.1-0.2,0.2c0,0.1,0.1,0.2,0.2,0.2c0,0,0.6,0.2,1.1,0.6c0,0,0,0,0,0c0,0,0,0,0,0c-0.2,0-0.4,0-0.6,0
		c-0.7,0-1.7-0.1-2.4-0.7c0,0,0,0,0,0c0.1-0.2,0.3-0.4,0.7-0.6C-106,377.7-105.1,377.5-104,377.6C-104,377.6-104,377.6-104,377.6
		C-104,377.6-104,377.6-104,377.6 M-107.1,377.7c-0.2,0.2-0.5,0.6-1.3,1c-0.1,0-0.1,0.1-0.1,0.3c0,0.1,0.1,0.2,0.2,0.2
		c0,0,0.6,0.1,1.2,0.4c0,0,0,0,0,0c0,0,0,0,0,0c-0.3,0.1-0.5,0.2-0.8,0.2c-0.2,0-0.5,0.1-0.8,0.1c-0.5,0-1-0.1-1.5-0.3c0,0,0,0,0,0
		c0.1-0.2,0.2-0.5,0.5-0.8C-109.2,378.2-108.3,377.8-107.1,377.7C-107.1,377.7-107.1,377.7-107.1,377.7
		C-107.1,377.7-107.1,377.7-107.1,377.7 M-111.2,379.6c-0.1,0.1-0.1,0.2-0.1,0.3c0,0.1,0.1,0.2,0.2,0.2h0c0,0,0.3,0,0.6,0
		c0.2,0,0.5,0.1,0.7,0.1c0,0,0,0,0,0c0,0,0,0,0,0c-0.3,0.1-0.5,0.2-0.8,0.3c-0.6,0.2-1.1,0.3-1.5,0.3c-0.4,0-0.6-0.1-0.9-0.1
		c0,0,0,0,0,0c0.1-0.5,0.6-1.8,2.8-2.5c0,0,0,0,0,0c0,0,0,0,0,0C-110.2,378.5-110.5,379.1-111.2,379.6 M-88.9,392.7
		c0.1-0.9,0.4-1.5,0.6-1.9c0,0,0,0,0,0c0,0,0,0,0,0c0.2,0.5,0.3,1.1,0.3,1.5c0,0.5,0,0.9-0.2,1.4c-0.2,0.5-0.4,0.8-0.5,0.9
		c0,0,0,0,0,0c0,0,0,0,0,0c-0.6-0.4-1.1-1-1.4-1.8c-0.1-0.3-0.2-0.5-0.2-0.8c0,0,0,0,0,0c0,0,0,0,0,0c0.5,0.3,1,0.8,1,0.8
		c0.1,0.1,0.2,0.1,0.3,0.1C-88.9,392.9-88.9,392.8-88.9,392.7 M-89.8,390c0-0.9,0.2-1.5,0.4-1.9c0,0,0,0,0,0c0,0,0,0,0,0
		c0.2,0.5,0.4,1,0.4,1.5c0.1,0.5,0.1,0.9,0,1.4c-0.1,0.5-0.3,0.9-0.4,1c0,0,0,0,0,0c0,0,0,0,0,0c-0.7-0.3-1.2-0.9-1.6-1.7
		c-0.1-0.2-0.2-0.5-0.3-0.8c0,0,0,0,0,0c0,0,0,0,0,0c0.6,0.3,1.1,0.7,1.1,0.7c0.1,0.1,0.2,0.1,0.3,0
		C-89.9,390.2-89.8,390.1-89.8,390 M-91.2,387.7L-91.2,387.7c0.1,0,0.1-0.1,0.1-0.2c-0.1-0.9,0-1.5,0.2-2c0,0,0,0,0,0c0,0,0,0,0,0
		c0.3,0.5,0.5,1,0.6,1.4c0.1,0.5,0.2,0.9,0.1,1.4c-0.1,0.5-0.2,0.9-0.3,1c0,0,0,0,0,0c0,0,0,0,0,0c-0.7-0.3-1.4-0.8-1.8-1.5
		c-0.2-0.2-0.3-0.5-0.4-0.8c0,0,0,0,0,0c0,0,0,0,0,0c0.6,0.2,1.2,0.6,1.2,0.6C-91.4,387.7-91.3,387.7-91.2,387.7 M-93,385.3
		c0.1,0.1,0.2,0.1,0.3,0c0.1-0.1,0.1-0.2,0.1-0.3c-0.2-0.8-0.2-1.5-0.1-1.9c0,0,0,0,0,0c0,0,0,0,0,0c0.4,0.4,0.6,0.9,0.8,1.3
		c0.2,0.4,0.3,0.9,0.3,1.3c0,0.5-0.1,0.9-0.1,1c0,0,0,0,0,0c0,0,0,0,0,0c-0.7-0.1-1.4-0.5-2-1.2c-0.2-0.2-0.4-0.5-0.6-0.7
		c0,0,0,0,0,0c0,0,0,0,0,0C-93.6,385-93,385.3-93,385.3 M-94.9,383.2c0.1,0,0.2,0,0.3-0.1c0.1-0.1,0.1-0.2,0-0.3
		c-0.4-0.8-0.5-1.5-0.5-1.9c0,0,0,0,0,0s0,0,0,0c0.4,0.4,0.8,0.8,1,1.2c0.3,0.4,0.5,0.8,0.6,1.3c0.1,0.5,0.1,0.9,0.1,1.1
		c0,0,0,0,0,0c0,0,0,0,0,0c-0.8,0-1.6-0.4-2.1-0.8c-0.2-0.2-0.5-0.4-0.7-0.6c0,0,0,0,0,0c0,0,0,0,0,0c0,0,0.1,0,0.1,0
		C-95.4,383-94.9,383.2-94.9,383.2 M-95.6,381.3c0.2,0.5,0.2,1,0.2,1.2c0,0,0,0,0,0c0,0-0.1,0-0.1,0c-1,0-2.2-0.7-2.8-1.1
		c0,0,0,0,0,0c0,0,0,0,0,0c0.6-0.1,1.2,0,1.2,0c0.1,0,0.2,0,0.3-0.1c0.1-0.1,0-0.2,0-0.3c-0.4-0.5-0.6-1.1-0.8-1.5c0,0,0,0,0,0
		c0,0,0,0,0,0C-96.6,379.9-95.9,380.5-95.6,381.3 M-113.8,378.4c0,0,0.1,0,0.1-0.1c0.6-0.2,1.2-0.3,1.4-0.4c0.7-0.1,1.1-0.4,1.1-0.4
		c0.1,0,0.1-0.1,0.1-0.2c0-0.1-0.1-0.1-0.1-0.1l-2.9-0.4l2.9-0.4c0.1,0,0.1-0.1,0.1-0.2s-0.1-0.2-0.1-0.2c0,0-0.6-0.1-1.3-0.4
		c-0.2-0.1-0.4-0.2-0.5-0.3c-0.3-0.1-0.5-0.3-0.8-0.4c0.1,0,0.1,0,0.2,0c0.6,0,1.2,0.1,1.5,0.2c0.7,0.1,1.2,0,1.2,0
		c0.1,0,0.1-0.1,0.1-0.1c0-0.1,0-0.1-0.1-0.2l-2.5-1.5l2.8,0.7c0.1,0,0.2,0,0.2-0.1c0-0.1,0-0.2-0.1-0.2c0,0-0.5-0.3-1-0.8
		c-0.1-0.2-0.3-0.3-0.4-0.4c-0.2-0.2-0.4-0.4-0.6-0.7c0,0,0.1,0,0.1,0.1c0.6,0.3,1.1,0.6,1.3,0.7c0.6,0.4,1.1,0.5,1.1,0.5
		c0.1,0,0.1,0,0.2-0.1c0-0.1,0-0.1,0-0.2l-1.8-2.3l2.4,1.7c0.1,0,0.2,0,0.2,0c0.1-0.1,0.1-0.2,0-0.2c0-0.1-0.4-0.5-0.6-1.2
		c-0.1-0.2-0.1-0.4-0.2-0.5c-0.1-0.3-0.2-0.5-0.3-0.9c0,0,0.1,0.1,0.1,0.1c0.4,0.5,0.8,0.9,0.9,1.2c0.4,0.5,0.8,0.8,0.8,0.9
		c0.1,0,0.1,0,0.2,0s0.1-0.1,0.1-0.2l-0.7-2.8l1.5,2.5c0,0.1,0.1,0.1,0.2,0.1c0.1,0,0.1-0.1,0.1-0.2c0,0-0.1-0.6-0.1-1.3
		c0-0.2,0-0.4,0-0.6c0-0.3,0.1-0.6,0-0.9c0,0,0,0.1,0.1,0.1c0.2,0.6,0.3,1.2,0.4,1.4c0.1,0.6,0.4,1.1,0.4,1.1c0,0.1,0.1,0.1,0.2,0.1
		c0.1,0,0.1-0.1,0.1-0.1l0.4-2.9l0.4,2.9c0,0.1,0.1,0.1,0.2,0.1s0.2-0.1,0.2-0.1c0,0,0.1-0.6,0.4-1.3c0.1-0.2,0.2-0.3,0.3-0.5
		c0.1-0.3,0.3-0.5,0.4-0.8c0,0.1,0,0.1,0,0.2c0,0.6-0.1,1.2-0.2,1.5c-0.1,0.7,0,1.2,0,1.2c0,0.1,0.1,0.1,0.1,0.1
		c0.1,0,0.1,0,0.2-0.1l1.5-2.5l-0.7,2.8c0,0.1,0,0.2,0.1,0.2c0.1,0,0.2,0,0.2-0.1c0-0.1,0.4-0.6,0.8-1c0.1-0.1,0.3-0.3,0.4-0.4
		c0.2-0.2,0.4-0.4,0.7-0.6c0,0,0,0.1-0.1,0.1c-0.3,0.6-0.6,1.1-0.7,1.3c-0.4,0.6-0.5,1.1-0.5,1.1c0,0.1,0,0.1,0.1,0.2
		c0.1,0,0.1,0,0.2,0l2.3-1.7l-1.7,2.3c0,0.1,0,0.2,0,0.2c0.1,0.1,0.2,0.1,0.2,0c0,0,0.5-0.4,1.2-0.6c0.2-0.1,0.4-0.1,0.5-0.2
		c0.3-0.1,0.5-0.2,0.9-0.3c0,0-0.1,0.1-0.1,0.1c-0.5,0.4-0.9,0.8-1.2,0.9c-0.5,0.4-0.9,0.8-0.9,0.8c0,0.1,0,0.1,0,0.2
		c0,0.1,0.1,0.1,0.2,0.1l2.8-0.7l-2.5,1.5c-0.1,0-0.1,0.1-0.1,0.2c0,0.1,0.1,0.1,0.2,0.1c0.1,0,0.7-0.1,1.3-0.1c0.2,0,0.4,0,0.6,0
		c0.3,0,0.6,0.1,0.9,0c0,0-0.1,0-0.1,0.1c-0.6,0.2-1.2,0.3-1.4,0.4c-0.7,0.1-1.1,0.4-1.1,0.4c-0.1,0-0.1,0.1-0.1,0.2
		c0,0.1,0.1,0.1,0.1,0.1l2.9,0.4l-2.9,0.4c-0.1,0-0.1,0.1-0.1,0.2c0,0.1,0.1,0.2,0.1,0.2c0.1,0,0.7,0.1,1.3,0.4
		c0.2,0.1,0.3,0.2,0.5,0.3c0.3,0.1,0.5,0.3,0.8,0.4c-0.1,0-0.1,0-0.2,0c-0.6,0-1.2-0.1-1.5-0.2l-0.1,0c-0.5-0.2-1.1-0.3-1.6-0.4
		c0,0,0,0,0,0c0-0.1-0.1-0.2-0.2-0.2c-0.8-0.3-1.5-0.4-2.2-0.4c-0.2,0-0.5,0-0.7,0c0,0,0-0.1,0-0.1c0-0.1-0.1-0.2-0.3-0.2
		c-0.8-0.1-1.6-0.1-2.2,0c-0.3,0.1-0.5,0.1-0.7,0.2c0-0.1,0-0.1-0.1-0.2c-0.1-0.1-0.2-0.1-0.3-0.1c-0.8,0.1-1.6,0.2-2.2,0.5
		c-0.2,0.1-0.3,0.1-0.5,0.2c0-0.1-0.1-0.2-0.1-0.2c-0.1-0.1-0.2-0.1-0.3-0.1c-0.8,0.2-1.5,0.5-2.1,0.9l0,0c-0.2,0-0.3,0-0.4,0
		c-0.1,0-0.5,0-0.6,0C-113.2,378.4-113.5,378.3-113.8,378.4 M-113,379.2C-113,379.2-113,379.2-113,379.2
		C-113,379.2-113,379.2-113,379.2c0,0.5-0.1,1.1-0.6,1.9c-0.1,0.1-0.1,0.2,0,0.3c0.1,0.1,0.2,0.1,0.3,0.1c0,0,0.6-0.1,1.3-0.1
		c0,0,0,0,0,0c0,0,0,0,0,0c-0.5,0.4-1.6,1.1-2.8,1.1c0,0-0.1,0-0.1,0c0,0,0,0,0,0C-115,382-114.9,380.6-113,379.2 M-117,383.4
		c0.1-0.4,0.3-0.9,0.6-1.3c0.3-0.4,0.6-0.8,1.1-1.2c0,0,0,0,0,0c0,0,0,0,0,0c0,0.4-0.1,1.1-0.5,1.9c0,0.1,0,0.2,0,0.3
		c0.1,0.1,0.2,0.1,0.3,0.1c0,0,0.6-0.2,1.2-0.2c0,0,0,0,0,0c0,0,0,0,0,0c-0.2,0.2-0.5,0.4-0.7,0.6c-0.5,0.4-1.2,0.8-1.9,0.8
		c0,0-0.1,0-0.1,0c0,0,0,0,0,0C-117.1,384.4-117.1,383.9-117,383.4 M-117.7,383.1C-117.7,383.1-117.6,383.1-117.7,383.1
		C-117.6,383.1-117.6,383.1-117.7,383.1c0.1,0.4,0.2,1.1-0.1,2c0,0.1,0,0.2,0.1,0.3c0.1,0.1,0.2,0.1,0.3,0c0,0,0.5-0.4,1.2-0.4
		c0,0,0,0,0,0c0,0,0,0,0,0c-0.4,0.6-1.4,1.7-2.5,1.9h0c0,0,0,0,0,0C-118.9,386.3-119.1,384.9-117.7,383.1 M-120.2,386.9
		c0.1-0.5,0.4-0.9,0.7-1.4c0,0,0,0,0,0c0,0,0,0,0,0c0.1,0.4,0.3,1.1,0.1,2c0,0.1,0,0.2,0.1,0.3s0.2,0,0.3,0c0,0,0.5-0.5,1.2-0.6
		c0,0,0,0,0,0c0,0,0,0,0,0c-0.1,0.2-0.3,0.5-0.5,0.8c-0.5,0.7-1.1,1.2-1.9,1.4c0,0,0,0,0,0c0,0,0,0,0,0c-0.1-0.1-0.2-0.5-0.2-1
		C-120.4,387.8-120.4,387.4-120.2,386.9 M-121.6,389.6c0.1-0.5,0.2-1,0.5-1.5c0,0,0,0,0,0c0,0,0,0,0,0c0.2,0.4,0.4,1.1,0.4,1.9
		c0,0.1,0.1,0.2,0.1,0.2c0.1,0,0.2,0,0.3,0c0,0,0.5-0.5,1.1-0.7c0,0,0,0,0,0c0,0,0,0,0,0c-0.1,0.2-0.2,0.5-0.3,0.7
		c-0.4,0.8-1,1.3-1.7,1.7c0,0,0,0,0,0c0,0,0,0,0,0c-0.1-0.2-0.3-0.5-0.4-1C-121.6,390.5-121.7,390-121.6,389.6 M-122.3,390.8
		C-122.3,390.8-122.3,390.8-122.3,390.8C-122.3,390.8-122.3,390.8-122.3,390.8c0.3,0.4,0.6,1,0.7,1.9c0,0.1,0.1,0.2,0.2,0.2
		s0.2,0,0.3-0.1c0,0,0.4-0.5,1-0.9c0,0,0,0,0,0c0,0,0,0,0,0c0,0.3-0.1,0.5-0.2,0.8c-0.3,0.8-0.8,1.5-1.5,1.9c0,0,0,0,0,0
		c0,0,0,0,0,0c-0.1-0.1-0.3-0.4-0.5-0.9c-0.1-0.4-0.2-0.9-0.2-1.4C-122.6,391.9-122.5,391.3-122.3,390.8 M-123.2,393.7
		C-123.2,393.6-123.2,393.6-123.2,393.7C-123.2,393.6-123.1,393.6-123.2,393.7c0.3,0.3,0.7,0.9,0.9,1.8c0,0.1,0.1,0.2,0.2,0.2
		c0.1,0,0.2,0,0.2-0.1c0,0,0.4-0.6,0.9-1c0,0,0,0,0,0c0,0,0,0,0,0c0,0.3,0,0.5-0.1,0.8c-0.2,0.8-0.6,1.5-1.2,2.1c0,0,0,0,0,0
		s0,0,0,0c-0.1-0.1-0.4-0.4-0.6-0.8c-0.2-0.4-0.3-0.8-0.4-1.3C-123.3,394.7-123.3,394.2-123.2,393.7 M-123.6,396.5
		C-123.6,396.5-123.6,396.5-123.6,396.5C-123.6,396.5-123.6,396.5-123.6,396.5c0.3,0.3,0.8,0.9,1,1.7c0,0.1,0.1,0.2,0.2,0.2
		c0.1,0,0.2,0,0.2-0.1c0,0,0.3-0.6,0.8-1c0,0,0,0,0,0c0,0,0,0,0,0c0,0.3,0,0.6-0.1,0.9c-0.1,0.9-0.5,1.6-1,2.1c0,0,0,0,0,0s0,0,0,0
		c-0.1-0.1-0.4-0.4-0.7-0.8c-0.2-0.4-0.4-0.8-0.4-1.3C-123.7,397.6-123.7,397.1-123.6,396.5 M-123.8,399.5
		C-123.8,399.5-123.8,399.5-123.8,399.5C-123.8,399.5-123.8,399.5-123.8,399.5c0.1,0,0.2,0.1,0.2,0.2c0.3,0.3,0.6,0.8,0.9,1.5
		c0,0.1,0.1,0.2,0.3,0.2c0.1,0,0.2-0.1,0.2-0.2c0,0,0.1-0.6,0.6-1.1c0,0,0,0,0,0c0,0,0,0,0,0c0.1,0.3,0.1,0.9,0,1.4
		c-0.1,0.7-0.4,1.2-0.8,1.7c0,0,0,0,0,0s0,0,0,0C-123,402.9-124,401.9-123.8,399.5 M-124,402.5C-124,402.5-124,402.5-124,402.5
		c0.1,0.1,0.2,0.1,0.2,0.2c0.3,0.3,0.7,0.7,1,1.4c0,0.1,0.1,0.1,0.2,0.1h0c0.1,0,0.2-0.1,0.2-0.2c0,0,0.3-0.6,0.7-1.2c0,0,0,0,0,0
		c0,0,0,0,0,0c0.1,0.6,0.2,1.8-0.7,3.1c0,0,0,0,0,0c0,0,0,0,0,0C-122.7,405.7-123.9,404.8-124,402.5C-124,402.5-124,402.5-124,402.5
		 M-123.8,405.5C-123.8,405.5-123.8,405.5-123.8,405.5C-123.8,405.5-123.8,405.5-123.8,405.5c0.4,0.2,1,0.6,1.5,1.3
		c0.1,0.1,0.2,0.1,0.2,0.1c0.1,0,0.2-0.1,0.2-0.2l0,0l0,0c0,0,0.2-0.7,0.5-1.3c0,0,0,0,0,0c0,0,0,0,0,0c0.1,0.2,0.2,0.5,0.3,0.8
		c0.2,0.8,0,1.6-0.4,2.4c0,0,0,0,0,0c0,0,0,0,0,0c-0.1-0.1-0.5-0.2-0.9-0.6c-0.3-0.3-0.6-0.7-0.9-1.1
		C-123.5,406.6-123.7,406.1-123.8,405.5 M-123.1,408.4C-123.1,408.4-123.1,408.3-123.1,408.4C-123.1,408.3-123.1,408.3-123.1,408.4
		c0.1,0,0.2,0,0.3,0.1c0.3,0.2,0.9,0.5,1.3,1.1c0.1,0.1,0.2,0.1,0.3,0.1c0.1,0,0.2-0.1,0.2-0.2c0,0,0.1-0.7,0.4-1.3c0,0,0,0,0,0
		c0,0,0,0,0,0c0.3,0.6,0.7,1.9,0.1,3.1c0,0,0,0,0,0c0,0,0,0,0,0C-121.1,411.2-122.5,410.6-123.1,408.4 M-121.4,412.6
		c-0.3-0.4-0.6-0.8-0.8-1.3c0,0,0,0,0,0c0,0,0,0,0,0c0.1,0,0.2,0.1,0.2,0.1c0.4,0.1,0.9,0.4,1.5,0.9c0.1,0.1,0.2,0.1,0.3,0.1
		c0.1,0,0.2-0.1,0.2-0.2c0,0,0-0.7,0.2-1.3c0,0,0,0,0,0c0,0,0,0,0,0c0.1,0.2,0.3,0.5,0.4,0.8c0.3,0.8,0.3,1.6,0.1,2.3c0,0,0,0,0,0
		c0,0,0,0,0,0c-0.1,0-0.5-0.1-1-0.4C-120.8,413.2-121.1,412.9-121.4,412.6 M-121,413.9C-121,413.9-121,413.9-121,413.9
		C-121,413.9-121,413.9-121,413.9c0.5,0,1.1,0.3,1.8,0.8c0.1,0.1,0.2,0.1,0.3,0c0.1,0,0.1-0.1,0.1-0.2c0,0-0.1-0.6,0.1-1.3
		c0,0,0,0,0,0c0,0,0,0,0,0c0.2,0.2,0.3,0.5,0.4,0.7c0.3,0.5,0.6,1.4,0.4,2.2c0,0,0,0,0,0h0c-0.2,0-0.6-0.1-1-0.3
		c-0.4-0.2-0.8-0.4-1.1-0.8C-120.4,414.8-120.7,414.4-121,413.9 M-115.4,418.8c0,0-0.2-0.6-0.3-1.2c0,0,0,0,0,0c0,0,0,0,0,0
		c0.6,0.5,1.5,1.5,1.5,2.8c0,0,0,0,0,0c-0.1,0-0.2,0-0.4,0c-0.2,0-0.4,0-0.6-0.1c-0.8-0.2-1.7-0.6-2.5-1.4c0,0,0,0,0,0c0,0,0,0,0,0
		c0.4-0.1,1.2-0.1,2,0.3c0.1,0,0.2,0,0.3-0.1C-115.4,419-115.3,418.9-115.4,418.8 M-117.6,417c0.1,0.1,0.2,0.1,0.3,0
		c0.1-0.1,0.1-0.2,0.1-0.3c0,0-0.2-0.6-0.1-1.3c0,0,0,0,0,0c0,0,0,0,0,0c0.5,0.6,1.2,1.7,1.2,2.9c0,0,0,0,0,0c0,0-0.1,0-0.1,0
		c-0.2,0-0.5,0-0.9-0.2c-0.4-0.1-0.8-0.4-1.2-0.7c-0.4-0.3-0.7-0.7-1.1-1.1c0,0,0,0,0,0c0,0,0,0,0,0
		C-119,416.4-118.3,416.6-117.6,417 M-108,410.6c-0.1,0.1-0.2,0.1-0.2,0.2c-0.5,0.4-0.8,0.8-1,1.2c-0.1,0-0.1,0-0.2,0
		c-0.4-0.1-0.4-0.3-0.4-0.4c0-0.2,0.1-0.4,0.4-0.7c0.4-0.3,0.7-0.5,0.9-0.5c0.1,0,0.2,0,0.3,0.1C-108.1,410.4-108.1,410.5-108,410.6
		C-108,410.6-108,410.6-108,410.6 M-107.5,412.6c-0.2,0-0.6,0.1-0.8-0.1c-0.1,0-0.1-0.1-0.1-0.2c0-0.3,0.4-0.7,0.7-0.9
		c0.4-0.3,0.7-0.5,0.9-0.5c0.1,0,0.2,0,0.3,0.1c0.1,0.1,0.1,0.1,0.1,0.2c0,0.1-0.1,0.3-0.3,0.4C-107.1,412-107.4,412.3-107.5,412.6
		 M-105.5,412.7c-0.2,0.1-0.7,0.5-1.1,0.4c-0.1,0-0.2,0-0.2-0.1c0.2-0.4,0.6-0.6,0.9-0.8c0.5-0.3,0.7-0.1,0.7-0.1
		c0.1,0.1,0.1,0.2,0.1,0.2C-105.1,412.4-105.3,412.6-105.5,412.7C-105.4,412.7-105.4,412.7-105.5,412.7 M-109.8,410
		c-0.1,0.1-0.1,0.1-0.2,0.2c-0.2,0.2-0.5,0.5-0.6,0.9c-0.1,0-0.1,0-0.2,0c-0.3,0-0.4-0.1-0.4-0.2c0,0-0.1-0.2,0.1-0.4
		c0.2-0.3,0.7-0.5,1.1-0.5c0,0,0.1,0,0.1,0c0,0,0,0,0,0C-109.9,410-109.9,410-109.8,410 M-99.3,410.5c-0.1,0.1-0.3,0.2-0.5,0.2
		c-0.3-0.5-1.2-1.5-2.3-2.1c-0.1,0-0.2-0.1-0.3,0c-0.1,0-0.2,0.1-0.2,0.2c0,0.1-0.1,0.2,0,0.3c0,0.1,0.1,0.2,0.2,0.2
		c1,0.5,1.7,1.4,2,1.8c0,0.1-0.1,0.1-0.1,0.2c-0.2,0.2-0.4,0.3-0.7,0.3c-0.1-0.2-0.3-0.5-0.5-0.8c-0.3-0.4-1-0.9-1.1-0.9
		c-0.1-0.1-0.2-0.1-0.3-0.1c-0.1,0-0.2,0.1-0.3,0.2c-0.1,0.1-0.1,0.2-0.1,0.3s0.1,0.2,0.2,0.3c0.2,0.1,0.7,0.5,0.9,0.8
		c0.3,0.3,0.4,0.5,0.4,0.6c0,0.1-0.1,0.2-0.2,0.3c-0.1,0.1-0.3,0.2-0.5,0.2c-0.1-0.2-0.3-0.7-0.7-1.1c-0.1-0.2-0.4-0.2-0.6,0
		c-0.1,0.1-0.1,0.2-0.1,0.3c0,0.1,0,0.2,0.1,0.3c0.3,0.3,0.5,0.6,0.6,0.8c-0.1,0-0.1,0.1-0.2,0.1c-0.2,0.1-0.4,0.1-0.7,0.1
		c0.1-0.2,0.2-0.3,0.2-0.5c0-0.2,0-0.6-0.4-0.9c-0.2-0.2-0.5-0.3-1-0.3c0-0.2-0.2-0.5-0.4-0.7c-0.4-0.3-0.8-0.4-1.3-0.3v0
		c-0.1-0.2-0.2-0.4-0.6-0.6c-0.3-0.2-0.7-0.2-1.1-0.1c-0.3-0.3-0.8-0.3-0.9-0.3c-0.5-0.1-1.2,0.2-1.7,0.6c-2.3,1.2-5.3,2.6-6.5,3.1
		c-0.6-1.2-1.2-2.5-1.6-3.8c-0.1-0.4-0.2-0.7-0.3-1.1c3.4-0.4,6.2-0.8,8.2-1.2c2.1-0.4,3.5-0.8,4.2-1.3c0.8-0.6,1.3-0.8,2.1-0.8
		c0.2,0,0.3,0,0.5,0.1c-0.1,0.1-0.3,0.1-0.4,0.2c-0.3,0.2-0.5,0.4-0.7,0.5c-0.2,0.1-0.3,0.3-0.5,0.4c-0.2,0.1-0.4,0.2-0.6,0.3
		c-0.5,0.2-0.9,0.4-1,0.7c-0.1,0.3-0.1,0.7,0.2,1c0.4,0.5,1,0.5,1.4,0.5c0.5,0,1.2-0.2,1.7-0.5c0.2-0.1,0.3-0.2,0.5-0.3
		c0.2-0.1,0.4-0.3,0.5-0.3c0,0,0,0,0,0c0.4-0.1,0.9-0.1,1.4,0.1c0.5,0.2,1,0.5,1.4,0.8c1.1,0.7,1.9,1.6,2.1,1.9
		C-99.2,410.3-99.2,410.4-99.3,410.5 M-97.8,410.2c-0.3-0.2-0.6-0.5-0.7-0.6c0,0,0,0,0,0l0,0c0,0-0.1-0.1-0.1-0.1
		c-0.4-0.4-1.1-1.3-2.2-1.9c-0.8-0.5-2.1-1.4-3.5-1c-0.3,0.1-0.5,0.2-0.8,0.4c-0.1,0.1-0.3,0.2-0.4,0.3c-0.4,0.2-1,0.4-1.3,0.4
		c-0.4,0-0.6,0-0.7-0.1c-0.1-0.1-0.1-0.2-0.1-0.2c0.1-0.1,0.4-0.2,0.6-0.3c0.2-0.1,0.5-0.2,0.6-0.3c0.3-0.2,0.4-0.3,0.6-0.5
		c0.2-0.1,0.3-0.3,0.6-0.5c0.4-0.3,0.9-0.3,1.5-0.3h0c0.1,0,0.2,0,0.3,0c0.1,0,0.2,0,0.3,0c0.7,0,1.4,0.2,2.4,0.6
		c0.3,0.1,0.6,0.2,1,0.3c0.1,0,1.4,0.4,3.2,0.9c1.6,0.4,3.9,0.8,6,1c-0.1,0.4-0.2,0.7-0.3,1c-0.5,1.4-1,2.7-1.7,4
		C-93.5,412.6-96.1,411.5-97.8,410.2 M-92.8,418.9c-1,1-1.9,1.3-2.5,1.4c-0.2,0-0.4,0.1-0.6,0.1c-0.2,0-0.3,0-0.4,0c0,0,0,0,0,0
		c0-0.7,0.2-1.5,0.8-2.2c0.2-0.2,0.4-0.4,0.6-0.6c0,0,0,0,0,0c0,0,0,0,0,0c-0.1,0.6-0.3,1.2-0.3,1.2c0,0.1,0,0.2,0,0.3
		c0.1,0.1,0.2,0.1,0.3,0.1C-94,418.8-93.3,418.8-92.8,418.9C-92.8,418.9-92.8,418.9-92.8,418.9C-92.8,418.9-92.8,418.9-92.8,418.9
		 M-91,416.4c-0.3,0.5-0.7,0.8-1.1,1.1c-0.4,0.3-0.8,0.5-1.2,0.7c-0.4,0.1-0.7,0.2-0.9,0.2c0,0-0.1,0-0.1,0c0,0,0,0,0,0
		c-0.1-0.7,0.2-1.5,0.6-2.2c0.1-0.2,0.3-0.5,0.5-0.7c0,0,0,0,0,0c0,0,0,0,0,0c0.1,0.6-0.1,1.3-0.1,1.3c0,0.1,0,0.2,0.1,0.3
		c0.1,0.1,0.2,0.1,0.3,0C-92.1,416.6-91.4,416.4-91,416.4C-91,416.4-91,416.4-91,416.4C-90.9,416.4-90.9,416.4-91,416.4
		 M-90.4,415.1c-0.4,0.3-0.7,0.6-1.1,0.8c-0.5,0.2-0.9,0.3-1,0.3h0c0,0,0,0,0,0c-0.1-0.7,0-1.5,0.4-2.3c0.1-0.2,0.3-0.5,0.4-0.7
		c0,0,0,0,0,0c0,0,0,0,0,0c0.1,0.6,0.1,1.3,0.1,1.3c0,0.1,0,0.2,0.1,0.2s0.2,0,0.3,0c0.7-0.5,1.4-0.7,1.8-0.8c0,0,0,0,0,0
		c0,0,0,0,0,0C-89.7,414.4-90,414.8-90.4,415.1 M-89,412.5c-0.3,0.4-0.7,0.7-1,0.9c-0.4,0.3-0.8,0.3-1,0.4c0,0,0,0,0,0c0,0,0,0,0,0
		c-0.2-0.7-0.2-1.5,0.1-2.3c0.1-0.2,0.2-0.5,0.3-0.7c0,0,0,0,0,0c0,0,0,0,0,0c0.2,0.6,0.2,1.3,0.2,1.3c0,0.1,0.1,0.2,0.2,0.2
		c0.1,0,0.2,0,0.3-0.1c0.5-0.6,1.1-0.9,1.4-1c0.1,0,0.2-0.1,0.3-0.1c0,0,0,0,0,0c0,0,0,0,0,0C-88.4,411.7-88.7,412.1-89,412.5
		 M-88,409.8c-0.3,0.4-0.6,0.8-0.9,1c-0.4,0.3-0.8,0.4-1,0.5c0,0,0,0,0,0c0,0,0,0,0,0c-0.3-0.8-0.2-1.7-0.1-2.3
		c0.1-0.3,0.2-0.5,0.3-0.8c0,0,0,0,0,0c0,0,0,0,0,0c0.3,0.6,0.3,1.3,0.4,1.3c0,0.1,0.1,0.2,0.2,0.2c0.1,0,0.2,0,0.3-0.1
		c0.5-0.7,1.2-1,1.6-1.2c0,0,0,0,0,0c0,0,0,0,0,0C-87.5,408.9-87.7,409.4-88,409.8 M-87.2,406.9c-0.2,0.4-0.5,0.8-0.8,1.1
		c-0.4,0.3-0.7,0.5-0.9,0.6c0,0,0,0,0,0c0,0,0,0,0,0c-0.4-0.7-0.5-1.5-0.4-2.4c0-0.3,0.1-0.6,0.2-0.8c0,0,0,0,0,0c0,0,0,0,0,0
		c0.3,0.6,0.5,1.3,0.5,1.3c0,0.1,0.1,0.2,0.2,0.2c0.1,0,0.2,0,0.2-0.1c0.5-0.7,1-1.2,1.4-1.4c0,0,0,0,0,0c0,0,0,0,0,0
		C-86.9,406-87,406.5-87.2,406.9"/>
	<path class="st2" d="M-92.8,418.9c-0.4-0.1-1.2-0.1-2,0.3c-0.1,0-0.2,0-0.3-0.1s-0.1-0.2-0.1-0.3c0,0,0.2-0.6,0.3-1.2c0,0,0,0,0,0
		c0,0,0,0,0,0c-0.2,0.2-0.4,0.4-0.6,0.6c-0.6,0.7-0.9,1.4-0.8,2.2c0,0,0,0,0,0c0.1,0,0.2,0,0.4,0c0.2,0,0.4,0,0.6-0.1
		C-94.7,420.2-93.8,419.9-92.8,418.9C-92.8,418.9-92.8,418.9-92.8,418.9C-92.8,418.9-92.8,418.9-92.8,418.9"/>
	<path class="st2" d="M-115.6,417.5C-115.7,417.5-115.7,417.5-115.6,417.5C-115.7,417.5-115.7,417.5-115.6,417.5
		c0,0.7,0.3,1.3,0.3,1.3c0,0.1,0,0.2-0.1,0.3c-0.1,0.1-0.2,0.1-0.3,0.1c-0.8-0.3-1.5-0.3-2-0.3c0,0,0,0,0,0c0,0,0,0,0,0
		c0.8,0.8,1.7,1.3,2.5,1.4c0.2,0,0.4,0.1,0.6,0.1c0.2,0,0.3,0,0.4,0c0,0,0,0,0,0C-114.1,419-115.1,418-115.6,417.5"/>
	<path class="st2" d="M-91,416.4c-0.5,0-1.1,0.2-1.9,0.6c-0.1,0.1-0.2,0.1-0.3,0c-0.1-0.1-0.1-0.2-0.1-0.3c0,0,0.1-0.6,0.1-1.3
		c0,0,0,0,0,0c0,0,0,0,0,0c-0.2,0.2-0.4,0.4-0.5,0.7c-0.5,0.7-0.7,1.5-0.6,2.2c0,0,0,0,0,0c0,0,0.1,0,0.1,0c0.2,0,0.5,0,0.9-0.2
		c0.4-0.1,0.8-0.4,1.2-0.7C-91.6,417.3-91.3,416.9-91,416.4C-90.9,416.4-90.9,416.4-91,416.4C-91,416.4-91,416.4-91,416.4"/>
	<path class="st2" d="M-89.5,413.9c-0.4,0.1-1.1,0.3-1.8,0.8c-0.1,0.1-0.2,0.1-0.3,0c-0.1,0-0.1-0.1-0.1-0.2c0,0,0.1-0.7-0.1-1.3
		c0,0,0,0,0,0c0,0,0,0,0,0c-0.2,0.2-0.3,0.5-0.4,0.7c-0.4,0.8-0.5,1.6-0.4,2.3c0,0,0,0,0,0h0c0.2,0,0.6,0,1-0.3
		c0.4-0.2,0.8-0.4,1.1-0.8C-90,414.8-89.7,414.4-89.5,413.9C-89.4,413.9-89.4,413.9-89.5,413.9C-89.4,413.9-89.4,413.9-89.5,413.9"
		/>
	<path class="st2" d="M-88.2,411.1c-0.1,0-0.2,0-0.3,0.1c-0.4,0.1-0.9,0.4-1.4,1c-0.1,0.1-0.2,0.1-0.3,0.1c-0.1,0-0.2-0.1-0.2-0.2
		c0,0,0-0.7-0.2-1.3c0,0,0,0,0,0c0,0,0,0,0,0c-0.1,0.2-0.2,0.5-0.3,0.7c-0.3,0.8-0.3,1.6-0.1,2.3c0,0,0,0,0,0c0,0,0,0,0,0
		c0.2,0,0.6-0.1,1-0.4c0.4-0.2,0.7-0.5,1-0.9C-88.7,412.1-88.4,411.7-88.2,411.1C-88.2,411.1-88.2,411.1-88.2,411.1
		C-88.2,411.1-88.2,411.1-88.2,411.1"/>
	<path class="st2" d="M-87.4,408.3c-0.4,0.2-1,0.5-1.6,1.2c-0.1,0.1-0.2,0.1-0.3,0.1c-0.1,0-0.2-0.1-0.2-0.2c0,0-0.1-0.7-0.4-1.3
		c0,0,0,0,0,0c0,0,0,0,0,0c-0.1,0.3-0.2,0.5-0.3,0.8c-0.1,0.6-0.2,1.5,0.1,2.3c0,0,0,0,0,0c0,0,0,0,0,0c0.1,0,0.5-0.2,1-0.5
		c0.4-0.3,0.7-0.6,0.9-1C-87.7,409.4-87.5,408.9-87.4,408.3C-87.3,408.3-87.3,408.3-87.4,408.3C-87.3,408.3-87.4,408.3-87.4,408.3"
		/>
	<path class="st2" d="M-86.8,405.4c-0.4,0.2-1,0.6-1.4,1.4c-0.1,0.1-0.1,0.1-0.2,0.1c-0.1,0-0.2-0.1-0.2-0.2c0,0-0.2-0.7-0.5-1.3
		c0,0,0,0,0,0c0,0,0,0,0,0c-0.1,0.3-0.1,0.6-0.2,0.8c-0.1,0.9,0,1.7,0.4,2.4c0,0,0,0,0,0c0,0,0,0,0,0c0.2-0.1,0.5-0.2,0.9-0.6
		c0.3-0.3,0.6-0.7,0.8-1.1C-87,406.5-86.9,406-86.8,405.4C-86.8,405.4-86.8,405.4-86.8,405.4C-86.8,405.4-86.8,405.4-86.8,405.4"/>
	<path class="st2" d="M-87.8,404c0,0.1-0.1,0.1-0.2,0.1c-0.1,0-0.2-0.1-0.2-0.2c0,0-0.2-0.7-0.6-1.2c0,0,0,0,0,0c0,0,0,0,0,0
		c-0.1,0.3-0.1,0.6-0.1,0.8c0,0.9,0.2,1.6,0.7,2.2c0,0,0,0,0,0c0,0,0,0,0,0c0.1-0.1,0.5-0.3,0.8-0.7c0.3-0.3,0.5-0.7,0.7-1.2
		c0.2-0.5,0.3-1,0.3-1.5c0,0,0,0,0,0c0,0,0,0,0,0C-86.9,402.7-87.4,403.2-87.8,404"/>
	<path class="st2" d="M-87.9,401.3c-0.1,0-0.2,0-0.2-0.1c0,0-0.3-0.6-0.7-1c0,0,0,0,0,0c0,0,0,0,0,0c0,0.7,0,2.1,0.8,3c0,0,0,0,0,0
		c0,0,0,0,0,0c0.1-0.1,0.4-0.3,0.7-0.8c0.3-0.4,0.4-0.8,0.6-1.3c0.1-0.5,0.2-1,0.2-1.6c0,0,0,0,0,0c0,0,0,0,0,0
		c-0.3,0.3-0.8,0.8-1.1,1.6C-87.7,401.2-87.8,401.3-87.9,401.3"/>
	<path class="st2" d="M-88,398.4c-0.1,0-0.2,0-0.2-0.1c0,0-0.3-0.5-0.8-0.9c0,0,0,0,0,0c0,0,0,0,0,0c0.1,0.8,0.3,2.2,1.1,2.9
		c0,0,0,0,0,0c0,0,0,0,0,0c0.1-0.1,0.4-0.4,0.7-0.8c0.2-0.4,0.4-0.8,0.4-1.3c0.1-0.5,0.1-1,0-1.6c0,0,0,0,0,0c0,0,0,0,0,0
		c-0.3,0.3-0.7,0.9-0.9,1.7C-87.9,398.3-87.9,398.4-88,398.4"/>
	<path class="st2" d="M-88.4,395.6c-0.1,0-0.2,0-0.3-0.1c0,0-0.4-0.5-0.9-0.9c0,0,0,0,0,0c0,0,0,0,0,0c0,0.3,0.1,0.6,0.1,0.8
		c0.1,0.6,0.5,1.4,1.1,2c0,0,0,0,0,0c0,0,0,0,0,0c0.1-0.1,0.4-0.4,0.6-0.9c0.2-0.4,0.3-0.8,0.4-1.3c0-0.5,0-1-0.1-1.6c0,0,0,0,0,0
		c0,0,0,0,0,0c-0.3,0.3-0.7,0.9-0.9,1.8C-88.2,395.6-88.3,395.6-88.4,395.6"/>
	<path class="st2" d="M-89,392.9c-0.1,0-0.2,0-0.3-0.1c0,0-0.5-0.5-1-0.8c0,0,0,0,0,0c0,0,0,0,0,0c0.1,0.3,0.1,0.5,0.2,0.8
		c0.3,0.8,0.8,1.4,1.4,1.8c0,0,0,0,0,0c0,0,0,0,0,0c0.1-0.1,0.3-0.4,0.5-0.9c0.1-0.4,0.2-0.9,0.2-1.4c0-0.5-0.1-1-0.3-1.5
		c0,0,0,0,0,0c0,0,0,0,0,0c-0.2,0.4-0.5,1-0.6,1.9C-88.9,392.8-88.9,392.9-89,392.9"/>
	<path class="st2" d="M-90.2,390.2c0,0-0.5-0.4-1.1-0.7c0,0,0,0,0,0c0,0,0,0,0,0c0.1,0.3,0.2,0.5,0.3,0.8c0.4,0.8,0.9,1.4,1.6,1.7
		c0,0,0,0,0,0c0,0,0,0,0,0c0.1-0.1,0.3-0.5,0.4-1c0.1-0.4,0.1-0.9,0-1.4c-0.1-0.5-0.2-1-0.4-1.5c0,0,0,0,0,0c0,0,0,0,0,0
		c-0.2,0.4-0.4,1.1-0.4,1.9c0,0.1-0.1,0.2-0.1,0.2C-90.1,390.3-90.2,390.2-90.2,390.2"/>
	<path class="st2" d="M-92.7,387.1C-92.7,387.1-92.7,387.1-92.7,387.1c0.1,0.3,0.2,0.5,0.4,0.8c0.5,0.7,1.1,1.2,1.8,1.5c0,0,0,0,0,0
		c0,0,0,0,0,0c0.1-0.1,0.2-0.5,0.3-1c0-0.4,0-0.9-0.1-1.4c-0.1-0.5-0.3-1-0.6-1.4c0,0,0,0,0,0c0,0,0,0,0,0c-0.2,0.4-0.3,1.1-0.2,2
		c0,0.1,0,0.2-0.1,0.2c-0.1,0.1-0.2,0-0.3,0C-91.5,387.7-92,387.2-92.7,387.1C-92.7,387-92.7,387-92.7,387.1"/>
	<path class="st2" d="M-94.3,384.9C-94.3,384.9-94.3,384.9-94.3,384.9c0.2,0.3,0.4,0.5,0.6,0.7c0.6,0.6,1.3,1,2,1.2c0,0,0,0,0,0
		c0,0,0,0,0,0c0.1-0.2,0.1-0.6,0.1-1c0-0.4-0.1-0.9-0.3-1.3c-0.2-0.4-0.5-0.9-0.8-1.3c0,0,0,0,0,0c0,0,0,0,0,0
		c-0.1,0.5-0.1,1.2,0.1,1.9c0,0.1,0,0.2-0.1,0.3c-0.1,0.1-0.2,0.1-0.3,0C-93,385.3-93.6,385-94.3,384.9
		C-94.3,384.9-94.3,384.9-94.3,384.9"/>
	<path class="st2" d="M-94.6,383.2c-0.1,0.1-0.2,0.1-0.3,0.1c0,0-0.6-0.2-1.2-0.2c0,0-0.1,0-0.1,0c0,0,0,0,0,0c0,0,0,0,0,0
		c0.2,0.2,0.5,0.4,0.7,0.6c0.5,0.4,1.2,0.8,2.1,0.8c0,0,0,0,0,0c0,0,0,0,0,0c0-0.2,0.1-0.6-0.1-1.1c-0.1-0.4-0.3-0.9-0.6-1.3
		c-0.3-0.4-0.6-0.8-1-1.2c0,0,0,0,0,0c0,0,0,0,0,0c0,0.4,0.1,1.1,0.5,1.9C-94.5,383-94.5,383.1-94.6,383.2"/>
	<path class="st2" d="M-116.2,418.4c0,0,0.1,0,0.1,0c0,0,0,0,0,0c0.1-1.2-0.7-2.3-1.2-2.9c0,0,0,0,0,0c0,0,0,0,0,0
		c-0.1,0.6,0.1,1.2,0.1,1.3c0,0.1,0,0.2-0.1,0.3c-0.1,0.1-0.2,0.1-0.3,0c-0.7-0.5-1.4-0.6-1.9-0.6c0,0,0,0,0,0c0,0,0,0,0,0
		c0.3,0.5,0.7,0.8,1.1,1.1c0.4,0.3,0.8,0.5,1.2,0.7C-116.8,418.4-116.5,418.4-116.2,418.4"/>
	<path class="st2" d="M-117.9,416.2L-117.9,416.2C-117.9,416.2-117.8,416.2-117.9,416.2c0.2-0.9-0.1-1.7-0.4-2.3
		c-0.1-0.2-0.3-0.5-0.4-0.7c0,0,0,0,0,0c0,0,0,0,0,0c-0.1,0.6-0.1,1.2-0.1,1.3c0,0.1,0,0.2-0.1,0.2c-0.1,0-0.2,0-0.3,0
		c-0.7-0.5-1.4-0.8-1.8-0.8c0,0,0,0,0,0c0,0,0,0,0,0c0.3,0.5,0.6,0.9,1,1.2c0.4,0.3,0.7,0.6,1.1,0.8
		C-118.4,416.1-118.1,416.2-117.9,416.2"/>
	<path class="st2" d="M-119.4,413.8C-119.4,413.8-119.4,413.8-119.4,413.8C-119.4,413.8-119.4,413.8-119.4,413.8
		c0.2-0.7,0.2-1.5-0.1-2.3c-0.1-0.3-0.2-0.5-0.4-0.8c0,0,0,0,0,0c0,0,0,0,0,0c-0.2,0.6-0.2,1.3-0.2,1.3c0,0.1-0.1,0.2-0.2,0.2
		c-0.1,0-0.2,0-0.3-0.1c-0.5-0.5-1.1-0.8-1.5-0.9c-0.1,0-0.2-0.1-0.2-0.1c0,0,0,0,0,0c0,0,0,0,0,0c0.2,0.5,0.5,1,0.8,1.3
		c0.3,0.4,0.7,0.7,1,0.9C-119.9,413.7-119.5,413.8-119.4,413.8"/>
	<path class="st2" d="M-120.6,411.3C-120.6,411.3-120.6,411.3-120.6,411.3C-120.6,411.3-120.6,411.3-120.6,411.3
		c0.6-1.3,0.2-2.5-0.1-3.1c0,0,0,0,0,0c0,0,0,0,0,0c-0.3,0.6-0.4,1.3-0.4,1.3c0,0.1-0.1,0.2-0.2,0.2c-0.1,0-0.2,0-0.3-0.1
		c-0.5-0.6-1-0.9-1.3-1.1c-0.1,0-0.2-0.1-0.2-0.1c0,0,0,0,0,0c0,0,0,0,0,0C-122.5,410.6-121.1,411.2-120.6,411.3"/>
	<path class="st2" d="M-122.4,408.1c0.4,0.3,0.8,0.5,0.9,0.6c0,0,0,0,0,0c0,0,0,0,0,0c0.4-0.8,0.6-1.6,0.4-2.4
		c-0.1-0.3-0.1-0.5-0.3-0.8c0,0,0,0,0,0c0,0,0,0,0,0c-0.3,0.6-0.5,1.3-0.5,1.3l0,0l0,0c0,0.1-0.1,0.2-0.2,0.2c-0.1,0-0.2,0-0.2-0.1
		c-0.5-0.7-1.1-1.1-1.5-1.3c0,0,0,0,0,0c0,0,0,0,0,0c0.1,0.6,0.3,1,0.5,1.5C-123,407.4-122.8,407.8-122.4,408.1"/>
	<path class="st2" d="M-122.3,406C-122.3,406-122.3,406-122.3,406C-122.3,406-122.2,406-122.3,406c0.9-1.2,0.8-2.5,0.7-3.1
		c0,0,0,0,0,0c0,0,0,0,0,0c-0.4,0.5-0.7,1.1-0.7,1.2c0,0.1-0.1,0.1-0.2,0.2h0c-0.1,0-0.2-0.1-0.2-0.1c-0.3-0.7-0.7-1.1-1-1.4
		c-0.1-0.1-0.1-0.1-0.2-0.2c0,0,0,0,0,0c0,0,0,0,0,0C-123.9,404.8-122.7,405.7-122.3,406"/>
	<path class="st2" d="M-122.5,403.2C-122.5,403.2-122.5,403.2-122.5,403.2C-122.5,403.2-122.5,403.2-122.5,403.2
		c0.5-0.4,0.8-1,0.9-1.7c0.1-0.6,0.1-1.1,0-1.4c0,0,0,0,0,0c0,0,0,0,0,0c-0.5,0.5-0.6,1.1-0.6,1.1c0,0.1-0.1,0.2-0.2,0.2
		c-0.1,0-0.2-0.1-0.3-0.2c-0.2-0.7-0.6-1.2-0.9-1.5c-0.1-0.1-0.1-0.1-0.2-0.2c0,0,0,0,0,0c0,0,0,0,0,0
		C-124,401.9-123,402.9-122.5,403.2"/>
	<path class="st2" d="M-123.2,399.4c0.3,0.5,0.6,0.7,0.7,0.8c0,0,0,0,0,0c0,0,0,0,0,0c0.5-0.5,0.9-1.2,1-2.1c0-0.3,0.1-0.6,0.1-0.9
		c0,0,0,0,0,0c0,0,0,0,0,0c-0.5,0.4-0.8,1-0.8,1c0,0.1-0.1,0.1-0.2,0.1c-0.1,0-0.2-0.1-0.2-0.2c-0.2-0.8-0.6-1.4-0.9-1.7
		c0,0,0,0,0,0c0,0,0,0,0,0c-0.1,0.6-0.1,1.1,0,1.6C-123.5,398.6-123.4,399-123.2,399.4"/>
	<path class="st2" d="M-122.9,396.6c0.2,0.4,0.5,0.7,0.6,0.8c0,0,0,0,0,0c0,0,0,0,0,0c0.6-0.5,1-1.2,1.2-2.1
		c0.1-0.3,0.1-0.5,0.1-0.8c0,0,0,0,0,0c0,0,0,0,0,0c-0.5,0.4-0.9,0.9-0.9,1c-0.1,0.1-0.2,0.1-0.2,0.1c-0.1,0-0.2-0.1-0.2-0.2
		c-0.2-0.8-0.6-1.4-0.9-1.8c0,0,0,0,0,0c0,0,0,0,0,0c-0.1,0.6-0.1,1.1-0.1,1.6C-123.2,395.7-123.1,396.2-122.9,396.6"/>
	<path class="st2" d="M-121.9,394.6C-121.9,394.6-121.9,394.6-121.9,394.6C-121.9,394.6-121.9,394.6-121.9,394.6
		c0.8-0.5,1.3-1.1,1.5-1.9c0.1-0.3,0.1-0.5,0.2-0.8c0,0,0,0,0,0c0,0,0,0,0,0c-0.6,0.3-1,0.9-1,0.9c-0.1,0.1-0.2,0.1-0.3,0.1
		s-0.2-0.1-0.2-0.2c-0.1-0.9-0.4-1.5-0.6-1.9c0,0,0,0,0,0c0,0,0,0,0,0c-0.2,0.5-0.3,1.1-0.3,1.5c0,0.5,0.1,0.9,0.2,1.4
		C-122.2,394.2-122,394.5-121.9,394.6"/>
	<path class="st2" d="M-121.2,391.9C-121.2,391.9-121.2,391.9-121.2,391.9C-121.1,391.9-121.1,391.9-121.2,391.9
		c0.8-0.4,1.4-1,1.8-1.7c0.1-0.2,0.2-0.5,0.3-0.7c0,0,0,0,0,0c0,0,0,0,0,0c-0.6,0.3-1.1,0.7-1.1,0.7c-0.1,0.1-0.2,0.1-0.3,0
		c-0.1,0-0.1-0.1-0.1-0.2c0-0.9-0.2-1.5-0.4-1.9c0,0,0,0,0,0l0,0c0,0,0,0,0,0c-0.2,0.5-0.4,1-0.5,1.5c-0.1,0.5-0.1,0.9,0,1.4
		C-121.5,391.4-121.3,391.8-121.2,391.9"/>
	<path class="st2" d="M-120.1,389.3C-120.1,389.3-120.1,389.3-120.1,389.3C-120.1,389.3-120.1,389.3-120.1,389.3
		c0.7-0.2,1.4-0.7,1.9-1.4c0.2-0.3,0.4-0.6,0.5-0.8c0,0,0,0,0,0c0,0,0,0,0,0c-0.7,0.1-1.2,0.6-1.2,0.6c-0.1,0.1-0.2,0.1-0.3,0
		c-0.1-0.1-0.1-0.2-0.1-0.3c0.2-0.9,0-1.5-0.1-2c0,0,0,0,0,0c0,0,0,0,0,0c-0.3,0.5-0.5,1-0.7,1.4c-0.1,0.5-0.2,0.9-0.2,1.4
		C-120.4,388.8-120.2,389.2-120.1,389.3"/>
	<path class="st2" d="M-118.7,386.8C-118.7,386.8-118.7,386.8-118.7,386.8c1.2-0.2,2.1-1.3,2.5-1.9c0,0,0,0,0,0c0,0,0,0,0,0
		c-0.7,0.1-1.2,0.4-1.2,0.4c-0.1,0.1-0.2,0.1-0.3,0c-0.1-0.1-0.1-0.2-0.1-0.3c0.3-0.8,0.2-1.5,0.1-2c0,0,0,0,0,0c0,0,0,0,0,0
		C-119.1,384.9-118.9,386.3-118.7,386.8C-118.7,386.8-118.7,386.8-118.7,386.8"/>
	<path class="st2" d="M-117,384.5C-117,384.5-117,384.5-117,384.5c0.8,0,1.5-0.4,2-0.8c0.2-0.2,0.5-0.4,0.7-0.6c0,0,0,0,0,0
		c0,0,0,0,0,0c-0.6,0-1.2,0.2-1.2,0.2c-0.1,0-0.2,0-0.3-0.1s-0.1-0.2,0-0.3c0.4-0.8,0.5-1.5,0.5-1.9c0,0,0,0,0,0c0,0,0,0,0,0
		c-0.4,0.4-0.8,0.8-1.1,1.2c-0.3,0.4-0.5,0.8-0.6,1.3C-117.1,383.9-117.1,384.3-117,384.5C-117.1,384.5-117.1,384.5-117,384.5"/>
	<path class="st5" d="M-109.9,395c0.1,0.2,0.4,0.2,0.7,0.2h3.2c-1.9-1.2-2.6-1-3.9-0.4C-109.9,394.9-109.9,394.9-109.9,395"/>
	<path class="st5" d="M-102.1,393.5c-0.3-0.1-0.6-0.2-0.8-0.3c-1-0.4-1.8-1-1.9-1.1c-0.2-0.2-0.2-0.5-0.1-0.7
		c0.2-0.2,0.5-0.2,0.7-0.1c0,0,0.7,0.6,1.6,0.9c0.2,0.1,0.5,0.1,0.7,0.2c0.4,0.1,0.9,0.2,1.3,0.4c-0.1-0.5-0.2-1-0.3-1.4
		c-1.3-0.3-2.3-1.1-2.4-1.2c-0.1-0.1-0.2-0.2-0.2-0.3c0-0.1,0-0.2,0.1-0.3c0.2-0.2,0.5-0.2,0.7-0.1c0,0,0.7,0.6,1.5,0.9
		c-0.3-1.3-0.8-2.4-1.4-3.6c-0.4-0.8-1.1-1.4-1.9-1.7c-0.6-0.2-1.1-0.2-1.1-0.2c0,0,0,0,0,0s-1.5,0-2.5,1.2c0,0,0,0,0,0
		c-0.2,0.2-0.7,0.7-0.7,1.2c0,0.2,0,0.4,0.2,0.5c0.1,0,0.3,0.1,0.7-0.2c0.1-0.1,0.2-0.1,0.2-0.2c0.2-0.1,0.5-0.1,0.6,0.1
		c0.2,0.2,0.1,0.5-0.1,0.6c-0.1,0.1-0.1,0.1-0.2,0.1c-0.2,0.2-0.6,0.5-1,1.1c-0.6,0.8-1.3,2.1-1.7,4.1c0,0,0,0.1,0,0.1
		c1.3-0.6,2.4-0.8,4.7,0.7c0.9,0.6,2,0.6,2.2,0.6h1c0,0,0,0,0,0c0.3,0,1,0,1.4-0.4c0.1-0.1,0.1-0.1,0.1-0.2
		C-100.5,394-101,393.8-102.1,393.5"/>
	<path class="st6" d="M-106.7,411.7c0.1-0.1,0.3-0.3,0.3-0.4c0-0.1,0-0.1-0.1-0.2c-0.1-0.1-0.2-0.1-0.3-0.1c-0.2,0-0.5,0.2-0.9,0.5
		c-0.3,0.2-0.7,0.5-0.7,0.9c0,0.1,0.1,0.2,0.1,0.2c0.2,0.1,0.6,0.1,0.8,0.1C-107.4,412.3-107.1,412-106.7,411.7"/>
	<path class="st6" d="M-105.1,412.3c0,0,0-0.1-0.1-0.2c0,0-0.2-0.2-0.7,0.1c-0.4,0.2-0.7,0.5-0.9,0.8c0.1,0.1,0.2,0.1,0.2,0.1
		c0.4,0.1,0.9-0.3,1.1-0.4c0,0,0,0,0,0C-105.3,412.6-105.1,412.4-105.1,412.3"/>
	<path class="st6" d="M-110,410C-110,410-110.1,410-110,410c-0.4,0-0.9,0.2-1.1,0.5c-0.2,0.2-0.1,0.3-0.1,0.4c0,0.1,0.2,0.1,0.4,0.2
		c0.1,0,0.1,0,0.2,0c0.1-0.4,0.4-0.7,0.6-0.9c0.1-0.1,0.1-0.1,0.2-0.2C-109.9,410-109.9,410-110,410C-110,410-110,410-110,410"/>
	<path class="st6" d="M-109.8,411.5c0,0.1,0,0.3,0.4,0.4c0.1,0,0.1,0,0.2,0c0.1-0.4,0.4-0.8,1-1.2c0.1,0,0.1-0.1,0.2-0.2
		c0,0,0-0.1,0-0.1c0-0.1-0.1-0.1-0.2-0.2c-0.1,0-0.2-0.1-0.3-0.1c-0.3,0-0.6,0.2-0.9,0.5C-109.7,411.1-109.9,411.3-109.8,411.5"/>
	<path class="st6" d="M-99.9,410.7c0.2,0,0.4-0.1,0.5-0.2c0.1-0.1,0.2-0.3,0.2-0.4c-0.2-0.3-1-1.2-2.1-1.9c-0.4-0.3-0.9-0.6-1.4-0.8
		c-0.5-0.2-1-0.3-1.4-0.1c0,0,0,0,0,0c-0.1,0-0.3,0.1-0.5,0.3c-0.1,0.1-0.3,0.2-0.5,0.3c-0.5,0.3-1.1,0.5-1.7,0.5
		c-0.5,0-1.1,0.1-1.4-0.5c-0.2-0.3-0.3-0.6-0.2-1c0.1-0.3,0.5-0.5,1-0.7c0.2-0.1,0.4-0.2,0.6-0.3c0.2-0.1,0.4-0.3,0.5-0.4
		c0.2-0.1,0.4-0.3,0.7-0.5c0.1-0.1,0.3-0.2,0.4-0.2c-0.2,0-0.3,0-0.5-0.1c-0.8-0.1-1.3,0.2-2.1,0.8c-0.7,0.5-2.1,0.9-4.2,1.3
		c-2,0.4-4.8,0.8-8.2,1.2c0.1,0.4,0.2,0.8,0.3,1.1c0.4,1.4,1,2.7,1.6,3.8c1.2-0.5,4.2-1.9,6.5-3.1c0.5-0.4,1.2-0.7,1.7-0.6
		c0.1,0,0.6,0.1,0.9,0.3c0.4-0.1,0.8-0.1,1.1,0.1c0.4,0.2,0.5,0.4,0.6,0.6l0,0c0.5-0.1,0.9-0.1,1.3,0.3c0.2,0.2,0.4,0.4,0.4,0.7
		c0.5-0.1,0.8,0.1,1,0.3c0.3,0.3,0.4,0.7,0.4,0.9c0,0.2-0.1,0.3-0.2,0.5c0.2,0,0.5,0,0.7-0.1c0.1,0,0.1-0.1,0.2-0.1
		c-0.1-0.2-0.3-0.5-0.6-0.8c-0.1-0.1-0.1-0.2-0.1-0.3c0-0.1,0.1-0.2,0.1-0.3c0.2-0.1,0.4-0.1,0.6,0c0.4,0.5,0.6,0.9,0.7,1.1
		c0.2,0,0.4,0,0.5-0.2c0.1-0.1,0.1-0.2,0.2-0.3c0-0.1-0.2-0.3-0.4-0.6c-0.2-0.3-0.7-0.7-0.9-0.8c-0.1-0.1-0.1-0.2-0.2-0.3
		c0-0.1,0-0.2,0.1-0.3c0.1-0.1,0.2-0.1,0.3-0.2c0.1,0,0.2,0,0.3,0.1c0,0,0.7,0.5,1.1,0.9c0.3,0.3,0.4,0.6,0.5,0.8
		c0.3,0,0.5-0.1,0.7-0.3c0-0.1,0.1-0.1,0.1-0.2c-0.3-0.4-1.1-1.4-2-1.8c-0.1,0-0.2-0.1-0.2-0.2c0-0.1,0-0.2,0-0.3
		c0-0.1,0.1-0.2,0.2-0.2c0.1,0,0.2,0,0.3,0C-101.1,409.2-100.2,410.3-99.9,410.7"/>
	<path class="st6" d="M-105.1,406.9c0.3-0.2,0.5-0.3,0.8-0.4c1.4-0.4,2.8,0.5,3.5,1c1,0.7,1.8,1.5,2.2,1.9c0,0,0,0,0.1,0.1l0,0
		c0,0,0,0,0,0c0.1,0.1,0.4,0.4,0.7,0.6c1.7,1.3,4.3,2.4,5.4,2.9c0.7-1.2,1.2-2.6,1.7-4c0.1-0.3,0.2-0.7,0.3-1c-2.2-0.1-4.5-0.6-6-1
		c-1.8-0.4-3.1-0.8-3.2-0.9c-0.4-0.1-0.7-0.2-1-0.3c-1-0.4-1.6-0.6-2.4-0.6c-0.1,0-0.2,0-0.3,0c-0.1,0-0.2,0-0.3,0h0
		c-0.7,0-1.1,0-1.5,0.3c-0.3,0.2-0.5,0.4-0.6,0.5c-0.2,0.1-0.3,0.3-0.6,0.5c-0.2,0.1-0.4,0.2-0.6,0.3c-0.2,0.1-0.5,0.2-0.6,0.3
		c0,0,0,0.1,0.1,0.2c0.1,0.1,0.3,0.1,0.7,0.1c0.3,0,0.9-0.1,1.3-0.4C-105.3,407.1-105.2,407-105.1,406.9"/>
</g>
</svg>
